<?xml version="1.0" encoding="UTF-8" standalone="no"?>
<svg
   version="1.1"
   viewBox="0 0 899.34912 270.21783"
   fill="none"
   stroke="none"
   stroke-linecap="square"
   stroke-miterlimit="10"
   id="svg87"
   sodipodi:docname="scope_of_cyphal.svg"
   inkscape:version="1.1.2 (0a00cf5339, 2022-02-04, custom)"
   width="899.34912"
   height="270.21783"
   xmlns:inkscape="http://www.inkscape.org/namespaces/inkscape"
   xmlns:sodipodi="http://sodipodi.sourceforge.net/DTD/sodipodi-0.dtd"
   xmlns="http://www.w3.org/2000/svg"
   xmlns:svg="http://www.w3.org/2000/svg">
  <defs
     id="defs91" />
  <sodipodi:namedview
     id="namedview89"
     pagecolor="#ffffff"
     bordercolor="#666666"
     borderopacity="1.0"
     inkscape:pageshadow="2"
     inkscape:pageopacity="0.0"
     inkscape:pagecheckerboard="0"
     showgrid="false"
     inkscape:zoom="1.7927083"
     inkscape:cx="315.72342"
     inkscape:cy="111.28414"
     inkscape:window-width="3840"
     inkscape:window-height="2087"
     inkscape:window-x="3840"
     inkscape:window-y="0"
     inkscape:window-maximized="1"
     inkscape:current-layer="svg87"
     fit-margin-top="0"
     fit-margin-left="0"
     fit-margin-right="0"
     fit-margin-bottom="0" />
  <clipPath
     id="g8b0be7b881_0_81.0">
    <path
       d="M 0,0 H 960 V 540 H 0 Z"
       clip-rule="nonzero"
       id="path2" />
  </clipPath>
  <path
     fill="#000000"
     fill-opacity="0"
     d="m 97.774037,260.87937 c -7.83025,0 -14.17792,-6.34766 -14.17792,-14.17792 v -56.71502 c 0,-7.83027 -6.347662,-14.17792 -14.177908,-14.17792 7.830246,0 14.177908,-6.34766 14.177908,-14.17792 v -56.71503 0 c 0,-7.83026 6.34767,-14.17791 14.17792,-14.17791 H 870.00734 c 3.76019,0 7.36639,1.49374 10.02527,4.15261 2.65887,2.65888 4.15265,6.26508 4.15265,10.0253 v 56.71503 c 0,7.83026 6.34765,14.17792 14.17792,14.17792 -7.83027,0 -14.17792,6.34765 -14.17792,14.17792 v 56.71502 c 0,7.83026 -6.34766,14.17792 -14.17792,14.17792 z"
     fill-rule="evenodd"
     id="path7" />
  <path
     fill="#000000"
     fill-opacity="0"
     d="m 97.774037,260.87937 c -7.83025,0 -14.17792,-6.34766 -14.17792,-14.17792 v -56.71502 c 0,-7.83027 -6.347662,-14.17792 -14.177908,-14.17792 7.830246,0 14.177908,-6.34766 14.177908,-14.17792 v -56.71503 0 c 0,-7.83026 6.34767,-14.17791 14.17792,-14.17791 m 772.233303,0 c 3.76019,0 7.36639,1.49374 10.02527,4.15261 2.65887,2.65888 4.15265,6.26508 4.15265,10.0253 v 56.71503 c 0,7.83026 6.34765,14.17792 14.17792,14.17792 -7.83027,0 -14.17792,6.34765 -14.17792,14.17792 v 56.71502 c 0,7.83026 -6.34766,14.17792 -14.17792,14.17792"
     fill-rule="evenodd"
     id="path9" />
  <path
     stroke="#000000"
     stroke-width="2"
     stroke-linejoin="round"
     stroke-linecap="butt"
     d="m 97.774037,260.87937 c -7.83025,0 -14.17792,-6.34766 -14.17792,-14.17792 v -56.71502 c 0,-7.83027 -6.347662,-14.17792 -14.177908,-14.17792 7.830246,0 14.177908,-6.34766 14.177908,-14.17792 v -56.71503 0 c 0,-7.83026 6.34767,-14.17791 14.17792,-14.17791 m 772.233303,0 c 3.76019,0 7.36639,1.49374 10.02527,4.15261 2.65887,2.65888 4.15265,6.26508 4.15265,10.0253 v 56.71503 c 0,7.83026 6.34765,14.17792 14.17792,14.17792 -7.83027,0 -14.17792,6.34765 -14.17792,14.17792 v 56.71502 c 0,7.83026 -6.34766,14.17792 -14.17792,14.17792"
     fill-rule="evenodd"
     id="path11" />
  <path
     fill="#efefef"
     d="M 236.16967,0 H 354.15392 V 79.40158 H 236.16967 Z"
     fill-rule="evenodd"
     id="path13" />
  <path
     fill="#999999"
     d="m 260.28475,29.25766 2.03125,-0.1875 q 0.14063,1.21875 0.65625,2 0.53125,0.78125 1.64063,1.26562 1.10937,0.48438 2.48437,0.48438 1.23438,0 2.17188,-0.35938 0.9375,-0.375 1.39062,-1.01562 0.46875,-0.64063 0.46875,-1.39063 0,-0.76562 -0.45312,-1.32812 -0.4375,-0.57813 -1.45313,-0.95313 -0.65625,-0.26562 -2.89062,-0.79687 -2.23438,-0.53125 -3.125,-1.01563 -1.15625,-0.60937 -1.73438,-1.5 -0.5625,-0.90625 -0.5625,-2.03125 0,-1.21875 0.6875,-2.28125 0.70313,-1.07812 2.03125,-1.625 1.34375,-0.5625 2.98438,-0.5625 1.8125,0 3.1875,0.59375 1.375,0.57813 2.10937,1.70313 0.75,1.125 0.79688,2.54687 l -2.04688,0.15625 q -0.17187,-1.53125 -1.14062,-2.3125 -0.95313,-0.79687 -2.8125,-0.79687 -1.95313,0 -2.84375,0.71875 -0.89063,0.71875 -0.89063,1.71875 0,0.875 0.64063,1.4375 0.60937,0.5625 3.21875,1.15625 2.625,0.59375 3.59375,1.03125 1.42187,0.65625 2.09375,1.65625 0.67187,1 0.67187,2.3125 0,1.29687 -0.73437,2.4375 -0.73438,1.14062 -2.125,1.78125 -1.39063,0.64062 -3.125,0.64062 -2.20313,0 -3.70313,-0.64062 -1.48437,-0.64063 -2.32812,-1.92188 -0.84375,-1.29687 -0.89063,-2.92187 z m 15.59592,9.70312 v -16.25 h 1.8125 v 1.53125 q 0.64062,-0.90625 1.4375,-1.34375 0.8125,-0.45312 1.96875,-0.45312 1.5,0 2.64062,0.78125 1.15625,0.76562 1.73438,2.1875 0.59375,1.40625 0.59375,3.07812 0,1.8125 -0.64063,3.26563 -0.64062,1.4375 -1.875,2.20312 -1.23437,0.76563 -2.59375,0.76563 -1,0 -1.79687,-0.42188 -0.78125,-0.42187 -1.29688,-1.0625 v 5.71875 z m 1.79687,-10.3125 q 0,2.26563 0.92188,3.35938 0.92187,1.07812 2.21875,1.07812 1.32812,0 2.26562,-1.125 0.95313,-1.125 0.95313,-3.46875 0,-2.25 -0.92188,-3.35937 -0.92187,-1.125 -2.20312,-1.125 -1.28125,0 -2.26563,1.1875 -0.96875,1.1875 -0.96875,3.45312 z m 18.45972,4.35938 q -1.10938,0.9375 -2.14063,1.32812 -1.01562,0.39063 -2.1875,0.39063 -1.9375,0 -2.98437,-0.9375 -1.03125,-0.95313 -1.03125,-2.42188 0,-0.85937 0.39062,-1.57812 0.40625,-0.71875 1.03125,-1.14063 0.64063,-0.4375 1.4375,-0.65625 0.59375,-0.15625 1.76563,-0.29687 2.42187,-0.29688 3.5625,-0.6875 0,-0.40625 0,-0.51563 0,-1.21875 -0.5625,-1.71875 -0.76563,-0.67187 -2.26563,-0.67187 -1.40625,0 -2.07812,0.5 -0.67188,0.48437 -0.98438,1.73437 l -1.95312,-0.26562 q 0.26562,-1.25 0.875,-2.01563 0.60937,-0.78125 1.75,-1.1875 1.15625,-0.42187 2.67187,-0.42187 1.51563,0 2.45313,0.35937 0.9375,0.34375 1.375,0.89063 0.45312,0.53125 0.625,1.34375 0.0937,0.51562 0.0937,1.84375 v 2.65625 q 0,2.78125 0.125,3.51562 0.14062,0.73438 0.51562,1.40625 h -2.07812 q -0.3125,-0.625 -0.40625,-1.45312 z m -0.15625,-4.4375 q -1.09375,0.4375 -3.26563,0.75 -1.21875,0.17187 -1.73437,0.39062 -0.5,0.21875 -0.78125,0.65625 -0.28125,0.42188 -0.28125,0.9375 0,0.79688 0.60937,1.32813 0.60938,0.53125 1.76563,0.53125 1.14062,0 2.03125,-0.5 0.90625,-0.5 1.32812,-1.375 0.32813,-0.67188 0.32813,-2 z m 12.75656,1.59375 1.96875,0.25 q -0.32813,2.01562 -1.65625,3.17187 -1.3125,1.14063 -3.23438,1.14063 -2.42187,0 -3.89062,-1.57813 -1.45313,-1.57812 -1.45313,-4.51562 0,-1.90625 0.625,-3.32813 0.625,-1.4375 1.90625,-2.14062 1.29688,-0.71875 2.8125,-0.71875 1.92188,0 3.14063,0.96875 1.21875,0.96875 1.5625,2.75 l -1.9375,0.29687 q -0.28125,-1.1875 -0.98438,-1.78125 -0.70312,-0.59375 -1.70312,-0.59375 -1.5,0 -2.4375,1.07813 -0.9375,1.07812 -0.9375,3.40625 0,2.375 0.90625,3.45312 0.90625,1.0625 2.35937,1.0625 1.17188,0 1.95313,-0.71875 0.79687,-0.71875 1,-2.20312 z m 11.70312,0.51562 2.0625,0.25 q -0.48437,1.8125 -1.8125,2.8125 -1.3125,0.98438 -3.35937,0.98438 -2.57813,0 -4.09375,-1.57813 -1.5,-1.59375 -1.5,-4.46875 0,-2.95312 1.53125,-4.59375 1.53125,-1.64062 3.95312,-1.64062 2.35938,0 3.84375,1.60937 1.5,1.59375 1.5,4.51563 0,0.17187 0,0.53125 h -8.76562 q 0.10937,1.9375 1.09375,2.96875 0.98437,1.01562 2.45312,1.01562 1.09375,0 1.85938,-0.5625 0.78125,-0.57812 1.23437,-1.84375 z m -6.53125,-3.21875 h 6.5625 q -0.14062,-1.48437 -0.75,-2.21875 -0.95312,-1.15625 -2.46875,-1.15625 -1.375,0 -2.3125,0.92188 -0.9375,0.90625 -1.03125,2.45312 z m 10.3191,2.125 v -2 h 6.125 v 2 z"
     fill-rule="nonzero"
     id="path15" />
  <path
     fill="#999999"
     d="m 282.28686,57.16391 1.96875,0.25 q -0.32813,2.01562 -1.65625,3.17187 -1.3125,1.14063 -3.23438,1.14063 -2.42187,0 -3.89062,-1.57813 -1.45313,-1.57812 -1.45313,-4.51562 0,-1.90625 0.625,-3.32813 0.625,-1.4375 1.90625,-2.14062 1.29688,-0.71875 2.8125,-0.71875 1.92188,0 3.14063,0.96875 1.21875,0.96875 1.5625,2.75 l -1.9375,0.29687 q -0.28125,-1.1875 -0.98438,-1.78125 -0.70312,-0.59375 -1.70312,-0.59375 -1.5,0 -2.4375,1.07813 -0.9375,1.07812 -0.9375,3.40625 0,2.375 0.90625,3.45312 0.90625,1.0625 2.35937,1.0625 1.17188,0 1.95313,-0.71875 0.79687,-0.71875 1,-2.20312 z m 3.64062,4.29687 v -11.75 h 1.79688 v 1.78125 q 0.6875,-1.25 1.26562,-1.64062 0.57813,-0.40625 1.28125,-0.40625 1,0 2.04688,0.64062 l -0.6875,1.84375 q -0.73438,-0.42187 -1.46875,-0.42187 -0.64063,0 -1.17188,0.39062 -0.51562,0.39063 -0.73437,1.09375 -0.32813,1.0625 -0.32813,2.3125 v 6.15625 z m 15.23221,-1.45312 q -1.10937,0.9375 -2.14062,1.32812 -1.01563,0.39063 -2.1875,0.39063 -1.9375,0 -2.98438,-0.9375 -1.03125,-0.95313 -1.03125,-2.42188 0,-0.85937 0.39063,-1.57812 0.40625,-0.71875 1.03125,-1.14063 0.64062,-0.4375 1.4375,-0.65625 0.59375,-0.15625 1.76562,-0.29687 2.42188,-0.29688 3.5625,-0.6875 0,-0.40625 0,-0.51563 0,-1.21875 -0.5625,-1.71875 -0.76562,-0.67187 -2.26562,-0.67187 -1.40625,0 -2.07813,0.5 -0.67187,0.48437 -0.98437,1.73437 l -1.95313,-0.26562 q 0.26563,-1.25 0.875,-2.01563 0.60938,-0.78125 1.75,-1.1875 1.15625,-0.42187 2.67188,-0.42187 1.51562,0 2.45312,0.35937 0.9375,0.34375 1.375,0.89063 0.45313,0.53125 0.625,1.34375 0.0937,0.51562 0.0937,1.84375 v 2.65625 q 0,2.78125 0.125,3.51562 0.14063,0.73438 0.51563,1.40625 h -2.07813 q -0.3125,-0.625 -0.40625,-1.45312 z m -0.15625,-4.4375 q -1.09375,0.4375 -3.26562,0.75 -1.21875,0.17187 -1.73438,0.39062 -0.5,0.21875 -0.78125,0.65625 -0.28125,0.42188 -0.28125,0.9375 0,0.79688 0.60938,1.32813 0.60937,0.53125 1.76562,0.53125 1.14063,0 2.03125,-0.5 0.90625,-0.5 1.32813,-1.375 0.32812,-0.67188 0.32812,-2 z m 5.56906,5.89062 V 51.25766 h -1.76562 v -1.54688 h 1.76562 v -1.25 q 0,-1.1875 0.20313,-1.75 0.29687,-0.78125 1.01562,-1.26562 0.73438,-0.48438 2.03125,-0.48438 0.84375,0 1.85938,0.20313 l -0.29688,1.73437 q -0.625,-0.10937 -1.17187,-0.10937 -0.90625,0 -1.28125,0.39062 -0.375,0.39063 -0.375,1.45313 v 1.07812 h 2.28125 v 1.54688 h -2.28125 v 10.20312 z m 10.16965,-1.78125 0.28125,1.76563 q -0.84375,0.17187 -1.5,0.17187 -1.07812,0 -1.6875,-0.34375 -0.59375,-0.34375 -0.84375,-0.89062 -0.23437,-0.5625 -0.23437,-2.35938 v -6.76562 h -1.46875 v -1.54688 h 1.46875 v -2.90625 l 1.98437,-1.20312 v 4.10937 h 2 v 1.54688 h -2 v 6.875 q 0,0.84375 0.0937,1.09375 0.10938,0.25 0.34375,0.39062 0.25,0.14063 0.6875,0.14063 0.32813,0 0.875,-0.0781 z"
     fill-rule="nonzero"
     id="path17" />
  <path
     fill="#efefef"
     d="M 110.34646,0 H 228.33071 V 79.40158 H 110.34646 Z"
     fill-rule="evenodd"
     id="path19" />
  <path
     fill="#999999"
     d="m 159.27801,31.74204 h 2.14062 v 9.375 q 0,2.4375 -0.54687,3.875 -0.54688,1.4375 -2,2.34375 -1.4375,0.90625 -3.78125,0.90625 -2.28125,0 -3.73438,-0.78125 -1.45312,-0.79688 -2.07812,-2.28125 -0.60938,-1.48438 -0.60938,-4.0625 v -9.375 h 2.14063 v 9.35937 q 0,2.10938 0.39062,3.10938 0.40625,1 1.35938,1.54687 0.95312,0.54688 2.34375,0.54688 2.35937,0 3.35937,-1.07813 1.01563,-1.07812 1.01563,-4.125 z m 3.93974,16.21875 6.21875,-16.21875 h 2.3125 l 6.64063,16.21875 h -2.4375 l -1.89063,-4.90625 h -6.78125 l -1.78125,4.90625 z m 4.67188,-6.65625 h 5.5 l -1.6875,-4.5 q -0.78125,-2.04688 -1.15625,-3.35938 -0.3125,1.5625 -0.875,3.09375 z m 15.17924,6.65625 -6.29687,-16.21875 h 2.32812 l 4.21875,11.78125 q 0.5,1.42187 0.84375,2.65625 0.375,-1.32813 0.875,-2.65625 l 4.39063,-11.78125 h 2.1875 l -6.35938,16.21875 z"
     fill-rule="nonzero"
     id="path21" />
  <path
     fill="#efefef"
     d="M 361.99291,0 H 479.97716 V 79.40158 H 361.99291 Z"
     fill-rule="evenodd"
     id="path23" />
  <path
     fill="#999999"
     d="M 381.73529,34.46079 V 18.24204 h 3.21875 l 3.84375,11.48437 q 0.53125,1.60938 0.78125,2.40625 0.26562,-0.89062 0.85937,-2.60937 l 3.875,-11.28125 h 2.89063 v 16.21875 h -2.0625 V 20.88266 l -4.71875,13.57813 h -1.9375 l -4.6875,-13.8125 v 13.8125 z m 26.34158,-1.45313 q -1.10937,0.9375 -2.14062,1.32813 -1.01563,0.39062 -2.1875,0.39062 -1.9375,0 -2.98438,-0.9375 -1.03125,-0.95312 -1.03125,-2.42187 0,-0.85938 0.39063,-1.57813 0.40625,-0.71875 1.03125,-1.14062 0.64062,-0.4375 1.4375,-0.65625 0.59375,-0.15625 1.76562,-0.29688 2.42188,-0.29687 3.5625,-0.6875 0,-0.40625 0,-0.51562 0,-1.21875 -0.5625,-1.71875 -0.76562,-0.67188 -2.26562,-0.67188 -1.40625,0 -2.07813,0.5 -0.67187,0.48438 -0.98437,1.73438 l -1.95313,-0.26563 q 0.26563,-1.25 0.875,-2.01562 0.60938,-0.78125 1.75,-1.1875 1.15625,-0.42188 2.67188,-0.42188 1.51562,0 2.45312,0.35938 0.9375,0.34375 1.375,0.89062 0.45313,0.53125 0.625,1.34375 0.0937,0.51563 0.0937,1.84375 v 2.65625 q 0,2.78125 0.125,3.51563 0.14063,0.73437 0.51563,1.40625 h -2.07813 q -0.3125,-0.625 -0.40625,-1.45313 z m -0.15625,-4.4375 q -1.09375,0.4375 -3.26562,0.75 -1.21875,0.17188 -1.73438,0.39063 -0.5,0.21875 -0.78125,0.65625 -0.28125,0.42187 -0.28125,0.9375 0,0.79687 0.60938,1.32812 0.60937,0.53125 1.76562,0.53125 1.14063,0 2.03125,-0.5 0.90625,-0.5 1.32813,-1.375 0.32812,-0.67187 0.32812,-2 z m 5.10035,5.89063 v -11.75 h 1.78125 v 1.67187 q 1.29687,-1.9375 3.75,-1.9375 1.0625,0 1.95312,0.39063 0.89063,0.375 1.32813,1 0.4375,0.60937 0.625,1.46875 0.10937,0.54687 0.10937,1.9375 v 7.21875 h -2 v -7.14063 q 0,-1.21875 -0.23437,-1.8125 -0.23438,-0.60937 -0.82813,-0.96875 -0.57812,-0.35937 -1.375,-0.35937 -1.28125,0 -2.20312,0.8125 -0.92188,0.79687 -0.92188,3.04687 v 6.42188 z m 12.60031,0 v -11.75 h 1.78125 v 1.67187 q 1.29687,-1.9375 3.75,-1.9375 1.0625,0 1.95312,0.39063 0.89063,0.375 1.32813,1 0.4375,0.60937 0.625,1.46875 0.10937,0.54687 0.10937,1.9375 v 7.21875 h -2 v -7.14063 q 0,-1.21875 -0.23437,-1.8125 -0.23438,-0.60937 -0.82813,-0.96875 -0.57812,-0.35937 -1.375,-0.35937 -1.28125,0 -2.20312,0.8125 -0.92188,0.79687 -0.92188,3.04687 v 6.42188 z m 20.63159,-3.78125 2.0625,0.25 q -0.48438,1.8125 -1.8125,2.8125 -1.3125,0.98437 -3.35938,0.98437 -2.57812,0 -4.09375,-1.57812 -1.5,-1.59375 -1.5,-4.46875 0,-2.95313 1.53125,-4.59375 1.53125,-1.64063 3.95313,-1.64063 2.35937,0 3.84375,1.60938 1.5,1.59375 1.5,4.51562 0,0.17188 0,0.53125 h -8.76563 q 0.10938,1.9375 1.09375,2.96875 0.98438,1.01563 2.45313,1.01563 1.09375,0 1.85937,-0.5625 0.78125,-0.57813 1.23438,-1.84375 z m -6.53125,-3.21875 h 6.5625 q -0.14063,-1.48438 -0.75,-2.21875 -0.95313,-1.15625 -2.46875,-1.15625 -1.375,0 -2.3125,0.92187 -0.9375,0.90625 -1.03125,2.45313 z m 18.70968,7 v -1.48438 q -1.10937,1.75 -3.28125,1.75 -1.40625,0 -2.59375,-0.76562 -1.17187,-0.78125 -1.8125,-2.17188 -0.64062,-1.39062 -0.64062,-3.1875 0,-1.76562 0.57812,-3.1875 0.59375,-1.4375 1.76563,-2.20312 1.17187,-0.76563 2.60937,-0.76563 1.0625,0 1.89063,0.45313 0.84375,0.4375 1.35937,1.15625 v -5.8125 h 1.98438 v 16.21875 z m -6.28125,-5.85938 q 0,2.25 0.9375,3.375 0.95313,1.10938 2.25,1.10938 1.3125,0 2.21875,-1.0625 0.92188,-1.0625 0.92188,-3.26563 0,-2.40625 -0.9375,-3.53125 -0.92188,-1.125 -2.29688,-1.125 -1.3125,0 -2.20312,1.07813 -0.89063,1.07812 -0.89063,3.42187 z"
     fill-rule="nonzero"
     id="path25" />
  <path
     fill="#999999"
     d="m 395.52079,60.00766 q -1.10937,0.9375 -2.14062,1.32812 -1.01563,0.39063 -2.1875,0.39063 -1.9375,0 -2.98438,-0.9375 -1.03125,-0.95313 -1.03125,-2.42188 0,-0.85937 0.39063,-1.57812 0.40625,-0.71875 1.03125,-1.14063 0.64062,-0.4375 1.4375,-0.65625 0.59375,-0.15625 1.76562,-0.29687 2.42188,-0.29688 3.5625,-0.6875 0,-0.40625 0,-0.51563 0,-1.21875 -0.5625,-1.71875 -0.76562,-0.67187 -2.26562,-0.67187 -1.40625,0 -2.07813,0.5 -0.67187,0.48437 -0.98437,1.73437 l -1.95313,-0.26562 q 0.26563,-1.25 0.875,-2.01563 0.60938,-0.78125 1.75,-1.1875 1.15625,-0.42187 2.67188,-0.42187 1.51562,0 2.45312,0.35937 0.9375,0.34375 1.375,0.89063 0.45313,0.53125 0.625,1.34375 0.0937,0.51562 0.0937,1.84375 v 2.65625 q 0,2.78125 0.125,3.51562 0.14063,0.73438 0.51563,1.40625 h -2.07813 q -0.3125,-0.625 -0.40625,-1.45312 z m -0.15625,-4.4375 q -1.09375,0.4375 -3.26562,0.75 -1.21875,0.17187 -1.73438,0.39062 -0.5,0.21875 -0.78125,0.65625 -0.28125,0.42188 -0.28125,0.9375 0,0.79688 0.60938,1.32813 0.60937,0.53125 1.76562,0.53125 1.14063,0 2.03125,-0.5 0.90625,-0.5 1.32813,-1.375 0.32812,-0.67188 0.32812,-2 z m 5.10031,-8.03125 v -2.29688 h 2 v 2.29688 z m 0,13.92187 v -11.75 h 2 v 11.75 z m 5.00226,0 v -11.75 h 1.79687 v 1.78125 q 0.6875,-1.25 1.26563,-1.64062 0.57812,-0.40625 1.28125,-0.40625 1,0 2.04687,0.64062 l -0.6875,1.84375 q -0.73437,-0.42187 -1.46875,-0.42187 -0.64062,0 -1.17187,0.39062 -0.51563,0.39063 -0.73438,1.09375 -0.32812,1.0625 -0.32812,2.3125 v 6.15625 z m 15.23221,-4.29687 1.96875,0.25 q -0.32813,2.01562 -1.65625,3.17187 -1.3125,1.14063 -3.23438,1.14063 -2.42187,0 -3.89062,-1.57813 -1.45313,-1.57812 -1.45313,-4.51562 0,-1.90625 0.625,-3.32813 0.625,-1.4375 1.90625,-2.14062 1.29688,-0.71875 2.8125,-0.71875 1.92188,0 3.14063,0.96875 1.21875,0.96875 1.5625,2.75 l -1.9375,0.29687 q -0.28125,-1.1875 -0.98438,-1.78125 -0.70312,-0.59375 -1.70312,-0.59375 -1.5,0 -2.4375,1.07813 -0.9375,1.07812 -0.9375,3.40625 0,2.375 0.90625,3.45312 0.90625,1.0625 2.35937,1.0625 1.17188,0 1.95313,-0.71875 0.79687,-0.71875 1,-2.20312 z m 3.64062,4.29687 v -11.75 h 1.79688 v 1.78125 q 0.6875,-1.25 1.26562,-1.64062 0.57813,-0.40625 1.28125,-0.40625 1,0 2.04688,0.64062 l -0.6875,1.84375 q -0.73438,-0.42187 -1.46875,-0.42187 -0.64063,0 -1.17188,0.39062 -0.51562,0.39063 -0.73437,1.09375 -0.32813,1.0625 -0.32813,2.3125 v 6.15625 z m 15.23221,-1.45312 q -1.10937,0.9375 -2.14062,1.32812 -1.01563,0.39063 -2.1875,0.39063 -1.9375,0 -2.98438,-0.9375 -1.03125,-0.95313 -1.03125,-2.42188 0,-0.85937 0.39063,-1.57812 0.40625,-0.71875 1.03125,-1.14063 0.64062,-0.4375 1.4375,-0.65625 0.59375,-0.15625 1.76562,-0.29687 2.42188,-0.29688 3.5625,-0.6875 0,-0.40625 0,-0.51563 0,-1.21875 -0.5625,-1.71875 -0.76562,-0.67187 -2.26562,-0.67187 -1.40625,0 -2.07813,0.5 -0.67187,0.48437 -0.98437,1.73437 l -1.95313,-0.26562 q 0.26563,-1.25 0.875,-2.01563 0.60938,-0.78125 1.75,-1.1875 1.15625,-0.42187 2.67188,-0.42187 1.51562,0 2.45312,0.35937 0.9375,0.34375 1.375,0.89063 0.45313,0.53125 0.625,1.34375 0.0937,0.51562 0.0937,1.84375 v 2.65625 q 0,2.78125 0.125,3.51562 0.14063,0.73438 0.51563,1.40625 h -2.07813 q -0.3125,-0.625 -0.40625,-1.45312 z m -0.15625,-4.4375 q -1.09375,0.4375 -3.26562,0.75 -1.21875,0.17187 -1.73438,0.39062 -0.5,0.21875 -0.78125,0.65625 -0.28125,0.42188 -0.28125,0.9375 0,0.79688 0.60938,1.32813 0.60937,0.53125 1.76562,0.53125 1.14063,0 2.03125,-0.5 0.90625,-0.5 1.32813,-1.375 0.32812,-0.67188 0.32812,-2 z m 5.56906,5.89062 V 51.25766 h -1.76562 v -1.54688 h 1.76562 v -1.25 q 0,-1.1875 0.20313,-1.75 0.29687,-0.78125 1.01562,-1.26562 0.73438,-0.48438 2.03125,-0.48438 0.84375,0 1.85938,0.20313 l -0.29688,1.73437 q -0.625,-0.10937 -1.17187,-0.10937 -0.90625,0 -1.28125,0.39062 -0.375,0.39063 -0.375,1.45313 v 1.07812 h 2.28125 v 1.54688 h -2.28125 v 10.20312 z m 10.16965,-1.78125 0.28125,1.76563 q -0.84375,0.17187 -1.5,0.17187 -1.07813,0 -1.6875,-0.34375 -0.59375,-0.34375 -0.84375,-0.89062 -0.23438,-0.5625 -0.23438,-2.35938 v -6.76562 h -1.46875 v -1.54688 h 1.46875 v -2.90625 l 1.98438,-1.20312 v 4.10937 h 2 v 1.54688 h -2 v 6.875 q 0,0.84375 0.0937,1.09375 0.10937,0.25 0.34375,0.39062 0.25,0.14063 0.6875,0.14063 0.32812,0 0.875,-0.0781 z"
     fill-rule="nonzero"
     id="path27" />
  <path
     fill="#efefef"
     d="M 487.81612,0 H 605.80037 V 79.40158 H 487.81612 Z"
     fill-rule="evenodd"
     id="path29" />
  <path
     fill="#999999"
     d="M 510.18009,34.46079 V 18.24204 h 7.1875 q 2.17188,0 3.29688,0.4375 1.125,0.4375 1.79687,1.54687 0.6875,1.10938 0.6875,2.4375 0,1.73438 -1.125,2.92188 -1.10937,1.17187 -3.45312,1.5 0.85937,0.40625 1.29687,0.79687 0.9375,0.875 1.78125,2.17188 l 2.82813,4.40625 h -2.70313 l -2.14062,-3.375 q -0.95313,-1.45313 -1.5625,-2.23438 -0.59375,-0.78125 -1.07813,-1.07812 -0.48437,-0.3125 -0.98437,-0.4375 -0.35938,-0.0781 -1.1875,-0.0781 h -2.5 v 7.20313 z m 2.14063,-9.0625 h 4.625 q 1.46875,0 2.29687,-0.29688 0.82813,-0.3125 1.25,-0.96875 0.4375,-0.67187 0.4375,-1.46875 0,-1.14062 -0.84375,-1.875 -0.82812,-0.75 -2.625,-0.75 h -5.14062 z m 13.18975,3.1875 q 0,-3.26563 1.8125,-4.82813 1.51563,-1.3125 3.70313,-1.3125 2.42187,0 3.95312,1.59375 1.54688,1.57813 1.54688,4.375 0,2.28125 -0.6875,3.57813 -0.67188,1.29687 -1.98438,2.01562 -1.29687,0.71875 -2.82812,0.71875 -2.46875,0 -4,-1.57812 -1.51563,-1.57813 -1.51563,-4.5625 z m 2.04688,0 q 0,2.25 0.98437,3.375 0.98438,1.125 2.48438,1.125 1.48437,0 2.46875,-1.125 0.98437,-1.125 0.98437,-3.4375 0,-2.1875 -1,-3.29688 -0.98437,-1.125 -2.45312,-1.125 -1.5,0 -2.48438,1.125 -0.98437,1.10938 -0.98437,3.35938 z m 13.13153,5.875 h -1.84375 V 18.24204 h 1.98437 v 5.78125 q 1.26563,-1.57813 3.21875,-1.57813 1.09375,0 2.0625,0.4375 0.96875,0.4375 1.59375,1.23438 0.625,0.78125 0.96875,1.90625 0.35938,1.10937 0.35938,2.39062 0,3.01563 -1.5,4.67188 -1.48438,1.64062 -3.57813,1.64062 -2.07812,0 -3.26562,-1.73437 z m -0.0156,-5.96875 q 0,2.125 0.57813,3.0625 0.9375,1.53125 2.53125,1.53125 1.3125,0 2.26562,-1.125 0.95313,-1.14063 0.95313,-3.39063 0,-2.29687 -0.92188,-3.39062 -0.90625,-1.09375 -2.20312,-1.09375 -1.3125,0 -2.26563,1.14062 -0.9375,1.125 -0.9375,3.26563 z m 10.03785,0.0937 q 0,-3.26563 1.8125,-4.82813 1.51562,-1.3125 3.70312,-1.3125 2.42188,0 3.95313,1.59375 1.54687,1.57813 1.54687,4.375 0,2.28125 -0.6875,3.57813 -0.67187,1.29687 -1.98437,2.01562 -1.29688,0.71875 -2.82813,0.71875 -2.46875,0 -4,-1.57812 -1.51562,-1.57813 -1.51562,-4.5625 z m 2.04687,0 q 0,2.25 0.98438,3.375 0.98437,1.125 2.48437,1.125 1.48438,0 2.46875,-1.125 0.98438,-1.125 0.98438,-3.4375 0,-2.1875 -1,-3.29688 -0.98438,-1.125 -2.45313,-1.125 -1.5,0 -2.48437,1.125 -0.98438,1.10938 -0.98438,3.35938 z m 15.64722,4.09375 0.28125,1.76562 q -0.84375,0.17188 -1.5,0.17188 -1.07813,0 -1.6875,-0.34375 -0.59375,-0.34375 -0.84375,-0.89063 -0.23438,-0.5625 -0.23438,-2.35937 v -6.76563 h -1.46875 v -1.54687 h 1.46875 v -2.90625 l 1.98438,-1.20313 v 4.10938 h 2 v 1.54687 h -2 v 6.875 q 0,0.84375 0.0937,1.09375 0.10937,0.25 0.34375,0.39063 0.25,0.14062 0.6875,0.14062 0.32812,0 0.875,-0.0781 z m 1.95086,-12.14063 v -2.29687 h 2 v 2.29687 z m 0,13.92188 v -11.75 h 2 v 11.75 z m 12.68976,-4.29688 1.96875,0.25 q -0.32812,2.01563 -1.65625,3.17188 -1.3125,1.14062 -3.23437,1.14062 -2.42188,0 -3.89063,-1.57812 -1.45312,-1.57813 -1.45312,-4.51563 0,-1.90625 0.625,-3.32812 0.625,-1.4375 1.90625,-2.14063 1.29687,-0.71875 2.8125,-0.71875 1.92187,0 3.14062,0.96875 1.21875,0.96875 1.5625,2.75 l -1.9375,0.29688 q -0.28125,-1.1875 -0.98437,-1.78125 -0.70313,-0.59375 -1.70313,-0.59375 -1.5,0 -2.4375,1.07812 -0.9375,1.07813 -0.9375,3.40625 0,2.375 0.90625,3.45313 0.90625,1.0625 2.35938,1.0625 1.17187,0 1.95312,-0.71875 0.79688,-0.71875 1,-2.20313 z"
     fill-rule="nonzero"
     id="path31" />
  <path
     fill="#999999"
     d="m 505.97119,57.96079 1.96875,-0.3125 q 0.15625,1.17187 0.90625,1.8125 0.76562,0.625 2.125,0.625 1.375,0 2.03125,-0.54688 0.67187,-0.5625 0.67187,-1.3125 0,-0.6875 -0.57812,-1.0625 -0.42188,-0.26562 -2.04688,-0.6875 -2.1875,-0.54687 -3.03125,-0.95312 -0.84375,-0.40625 -1.28125,-1.10938 -0.4375,-0.71875 -0.4375,-1.57812 0,-0.79688 0.35938,-1.45313 0.35937,-0.67187 0.98437,-1.125 0.45313,-0.32812 1.25,-0.5625 0.8125,-0.25 1.73438,-0.25 1.375,0 2.42187,0.40625 1.04688,0.39063 1.54688,1.07813 0.5,0.67187 0.6875,1.8125 l -1.95313,0.26562 q -0.125,-0.90625 -0.76562,-1.40625 -0.64063,-0.51562 -1.79688,-0.51562 -1.375,0 -1.96875,0.45312 -0.57812,0.45313 -0.57812,1.0625 0,0.39063 0.25,0.6875 0.23437,0.32813 0.75,0.53125 0.3125,0.125 1.76562,0.51563 2.10938,0.5625 2.9375,0.92187 0.84375,0.35938 1.3125,1.04688 0.48438,0.6875 0.48438,1.70312 0,1 -0.57813,1.875 -0.57812,0.875 -1.67187,1.35938 -1.09375,0.48437 -2.48438,0.48437 -2.29687,0 -3.5,-0.95312 -1.1875,-0.95313 -1.51562,-2.8125 z m 12.03125,8.03125 -0.21875,-1.875 q 0.65625,0.17187 1.14062,0.17187 0.65625,0 1.04688,-0.21875 0.40625,-0.21875 0.65625,-0.625 0.1875,-0.29687 0.60937,-1.46875 0.0625,-0.17187 0.1875,-0.5 l -4.46875,-11.76562 h 2.15625 l 2.4375,6.8125 q 0.48438,1.28125 0.85938,2.71875 0.34375,-1.375 0.8125,-2.6875 l 2.51562,-6.84375 h 1.98438 l -4.46875,11.95312 q -0.71875,1.9375 -1.10938,2.65625 -0.53125,0.98438 -1.21875,1.4375 -0.6875,0.46875 -1.64062,0.46875 -0.57813,0 -1.28125,-0.23437 z m 10.625,-8.03125 1.96875,-0.3125 q 0.15625,1.17187 0.90625,1.8125 0.76562,0.625 2.125,0.625 1.375,0 2.03125,-0.54688 0.67187,-0.5625 0.67187,-1.3125 0,-0.6875 -0.57812,-1.0625 -0.42188,-0.26562 -2.04688,-0.6875 -2.1875,-0.54687 -3.03125,-0.95312 -0.84375,-0.40625 -1.28125,-1.10938 -0.4375,-0.71875 -0.4375,-1.57812 0,-0.79688 0.35938,-1.45313 0.35937,-0.67187 0.98437,-1.125 0.45313,-0.32812 1.25,-0.5625 0.8125,-0.25 1.73438,-0.25 1.375,0 2.42187,0.40625 1.04688,0.39063 1.54688,1.07813 0.5,0.67187 0.6875,1.8125 l -1.95313,0.26562 q -0.125,-0.90625 -0.76562,-1.40625 -0.64063,-0.51562 -1.79688,-0.51562 -1.375,0 -1.96875,0.45312 -0.57812,0.45313 -0.57812,1.0625 0,0.39063 0.25,0.6875 0.23437,0.32813 0.75,0.53125 0.3125,0.125 1.76562,0.51563 2.10938,0.5625 2.9375,0.92187 0.84375,0.35938 1.3125,1.04688 0.48438,0.6875 0.48438,1.70312 0,1 -0.57813,1.875 -0.57812,0.875 -1.67187,1.35938 -1.09375,0.48437 -2.48438,0.48437 -2.29687,0 -3.5,-0.95312 -1.1875,-0.95313 -1.51562,-2.8125 z m 16.46875,1.71875 0.28125,1.76562 q -0.84375,0.17188 -1.5,0.17188 -1.07813,0 -1.6875,-0.34375 -0.59375,-0.34375 -0.84375,-0.89063 -0.23438,-0.5625 -0.23438,-2.35937 v -6.76563 h -1.46875 v -1.54687 h 1.46875 v -2.90625 l 1.98438,-1.20313 v 4.10938 h 2 v 1.54687 h -2 v 6.875 q 0,0.84375 0.0937,1.09375 0.10937,0.25 0.34375,0.39063 0.25,0.14062 0.6875,0.14062 0.32812,0 0.875,-0.0781 z m 9.98212,-2 2.0625,0.25 q -0.48438,1.8125 -1.8125,2.8125 -1.3125,0.98437 -3.35938,0.98437 -2.57812,0 -4.09375,-1.57812 -1.5,-1.59375 -1.5,-4.46875 0,-2.95313 1.53125,-4.59375 1.53125,-1.64063 3.95313,-1.64063 2.35937,0 3.84375,1.60938 1.5,1.59375 1.5,4.51562 0,0.17188 0,0.53125 h -8.76563 q 0.10938,1.9375 1.09375,2.96875 0.98438,1.01563 2.45313,1.01563 1.09375,0 1.85937,-0.5625 0.78125,-0.57813 1.23438,-1.84375 z m -6.53125,-3.21875 h 6.5625 q -0.14063,-1.48438 -0.75,-2.21875 -0.95313,-1.15625 -2.46875,-1.15625 -1.375,0 -2.3125,0.92187 -0.9375,0.90625 -1.03125,2.45313 z m 11.10034,7 v -11.75 h 1.78125 v 1.65625 q 0.54687,-0.875 1.46875,-1.39063 0.92187,-0.53125 2.09375,-0.53125 1.29687,0 2.125,0.54688 0.84375,0.53125 1.1875,1.51562 1.39062,-2.0625 3.625,-2.0625 1.75,0 2.6875,0.96875 0.9375,0.96875 0.9375,2.98438 v 8.0625 h -1.96875 v -7.40625 q 0,-1.1875 -0.20313,-1.70313 -0.1875,-0.53125 -0.70312,-0.84375 -0.5,-0.32812 -1.1875,-0.32812 -1.23438,0 -2.0625,0.82812 -0.8125,0.8125 -0.8125,2.625 v 6.82813 h -2 v -7.64063 q 0,-1.3125 -0.48438,-1.96875 -0.48437,-0.67187 -1.59375,-0.67187 -0.84375,0 -1.5625,0.4375 -0.70312,0.4375 -1.03125,1.29687 -0.3125,0.84375 -0.3125,2.45313 v 6.09375 z m 18.07599,-3.5 1.96875,-0.3125 q 0.15625,1.17187 0.90625,1.8125 0.76562,0.625 2.125,0.625 1.375,0 2.03125,-0.54688 0.67187,-0.5625 0.67187,-1.3125 0,-0.6875 -0.57812,-1.0625 -0.42188,-0.26562 -2.04688,-0.6875 -2.1875,-0.54687 -3.03125,-0.95312 -0.84375,-0.40625 -1.28125,-1.10938 -0.4375,-0.71875 -0.4375,-1.57812 0,-0.79688 0.35938,-1.45313 0.35937,-0.67187 0.98437,-1.125 0.45313,-0.32812 1.25,-0.5625 0.8125,-0.25 1.73438,-0.25 1.375,0 2.42187,0.40625 1.04688,0.39063 1.54688,1.07813 0.5,0.67187 0.6875,1.8125 l -1.95313,0.26562 q -0.125,-0.90625 -0.76562,-1.40625 -0.64063,-0.51562 -1.79688,-0.51562 -1.375,0 -1.96875,0.45312 -0.57812,0.45313 -0.57812,1.0625 0,0.39063 0.25,0.6875 0.23437,0.32813 0.75,0.53125 0.3125,0.125 1.76562,0.51563 2.10938,0.5625 2.9375,0.92187 0.84375,0.35938 1.3125,1.04688 0.48438,0.6875 0.48438,1.70312 0,1 -0.57813,1.875 -0.57812,0.875 -1.67187,1.35938 -1.09375,0.48437 -2.48438,0.48437 -2.29687,0 -3.5,-0.95312 -1.1875,-0.95313 -1.51562,-2.8125 z"
     fill-rule="nonzero"
     id="path33" />
  <path
     fill="#efefef"
     d="M 739.46229,0 H 857.44654 V 79.40158 H 739.46229 Z"
     fill-rule="evenodd"
     id="path35" />
  <path
     fill="#999999"
     d="m 789.76693,47.96079 v -2.26563 h 2.26562 v 2.26563 z m 7.5625,0 v -2.26563 h 2.26562 v 2.26563 z m 7.54687,0 v -2.26563 h 2.26563 v 2.26563 z"
     fill-rule="nonzero"
     id="path37" />
  <path
     fill="#00dac6"
     d="m 110.34714,90.73674 h 747.0866 v 79.40157 h -747.0866 z"
     fill-rule="evenodd"
     id="path39" />
  <path
     stroke="#ffffff"
     stroke-width="1"
     stroke-linejoin="round"
     stroke-linecap="butt"
     d="m 110.34714,90.73674 h 747.0866 v 79.40157 h -747.0866 z"
     fill-rule="evenodd"
     id="path41" />
  <path
     fill="#000000"
     d="m 184.91056,133.01004 2.15625,0.54687 q -0.67188,2.64063 -2.4375,4.03125 -1.75,1.39063 -4.28125,1.39063 -2.625,0 -4.26563,-1.0625 -1.64062,-1.07813 -2.5,-3.09375 -0.85937,-2.03125 -0.85937,-4.35938 0,-2.53125 0.96875,-4.40625 0.96875,-1.89062 2.75,-2.875 1.79687,-0.98437 3.9375,-0.98437 2.4375,0 4.09375,1.25 1.65625,1.23437 2.3125,3.48437 l -2.10938,0.5 q -0.5625,-1.78125 -1.64062,-2.57812 -1.07813,-0.8125 -2.70313,-0.8125 -1.85937,0 -3.125,0.90625 -1.25,0.89062 -1.76562,2.40625 -0.5,1.5 -0.5,3.10937 0,2.0625 0.59375,3.60938 0.60937,1.53125 1.875,2.29687 1.28125,0.76563 2.76562,0.76563 1.79688,0 3.04688,-1.03125 1.25,-1.04688 1.6875,-3.09375 z m 3.79912,-0.1875 q 0,-3.26563 1.8125,-4.82813 1.51562,-1.3125 3.70312,-1.3125 2.42188,0 3.95313,1.59375 1.54687,1.57813 1.54687,4.375 0,2.28125 -0.6875,3.57813 -0.67187,1.29687 -1.98437,2.01562 -1.29688,0.71875 -2.82813,0.71875 -2.46875,0 -4,-1.57812 -1.51562,-1.57813 -1.51562,-4.5625 z m 2.04687,0 q 0,2.25 0.98438,3.375 0.98437,1.125 2.48437,1.125 1.48438,0 2.46875,-1.125 0.98438,-1.125 0.98438,-3.4375 0,-2.1875 -1,-3.29688 -0.98438,-1.125 -2.45313,-1.125 -1.5,0 -2.48437,1.125 -0.98438,1.10938 -0.98438,3.35938 z m 11.30345,5.875 v -11.75 h 1.78125 v 1.65625 q 0.54688,-0.875 1.46875,-1.39063 0.92188,-0.53125 2.09375,-0.53125 1.29688,0 2.125,0.54688 0.84375,0.53125 1.1875,1.51562 1.39063,-2.0625 3.625,-2.0625 1.75,0 2.6875,0.96875 0.9375,0.96875 0.9375,2.98438 v 8.0625 h -1.96875 v -7.40625 q 0,-1.1875 -0.20312,-1.70313 -0.1875,-0.53125 -0.70313,-0.84375 -0.5,-0.32812 -1.1875,-0.32812 -1.23437,0 -2.0625,0.82812 -0.8125,0.8125 -0.8125,2.625 v 6.82813 h -2 v -7.64063 q 0,-1.3125 -0.48437,-1.96875 -0.48438,-0.67187 -1.59375,-0.67187 -0.84375,0 -1.5625,0.4375 -0.70313,0.4375 -1.03125,1.29687 -0.3125,0.84375 -0.3125,2.45313 v 6.09375 z m 18.87284,0 v -11.75 h 1.78125 v 1.65625 q 0.54687,-0.875 1.46875,-1.39063 0.92187,-0.53125 2.09375,-0.53125 1.29687,0 2.125,0.54688 0.84375,0.53125 1.1875,1.51562 1.39062,-2.0625 3.625,-2.0625 1.75001,0 2.68751,0.96875 0.9375,0.96875 0.9375,2.98438 v 8.0625 h -1.96875 v -7.40625 q 0,-1.1875 -0.20312,-1.70313 -0.1875,-0.53125 -0.70314,-0.84375 -0.5,-0.32812 -1.1875,-0.32812 -1.23438,0 -2.0625,0.82812 -0.8125,0.8125 -0.8125,2.625 v 6.82813 h -2 v -7.64063 q 0,-1.3125 -0.48438,-1.96875 -0.48437,-0.67187 -1.59375,-0.67187 -0.84375,0 -1.5625,0.4375 -0.70312,0.4375 -1.03125,1.29687 -0.3125,0.84375 -0.3125,2.45313 v 6.09375 z m 18.12285,-5.875 q 0,-3.26563 1.8125,-4.82813 1.51562,-1.3125 3.70312,-1.3125 2.42188,0 3.95313,1.59375 1.54687,1.57813 1.54687,4.375 0,2.28125 -0.6875,3.57813 -0.67187,1.29687 -1.98437,2.01562 -1.29688,0.71875 -2.82813,0.71875 -2.46875,0 -4,-1.57812 -1.51562,-1.57813 -1.51562,-4.5625 z m 2.04687,0 q 0,2.25 0.98438,3.375 0.98437,1.125 2.48437,1.125 1.48438,0 2.46875,-1.125 0.98438,-1.125 0.98438,-3.4375 0,-2.1875 -1,-3.29688 -0.98438,-1.125 -2.45313,-1.125 -1.5,0 -2.48437,1.125 -0.98438,1.10938 -0.98438,3.35938 z m 11.30344,5.875 v -11.75 h 1.78125 v 1.67187 q 1.29687,-1.9375 3.75,-1.9375 1.0625,0 1.95312,0.39063 0.89063,0.375 1.32813,1 0.4375,0.60937 0.625,1.46875 0.10937,0.54687 0.10937,1.9375 v 7.21875 h -2 v -7.14063 q 0,-1.21875 -0.23437,-1.8125 -0.23438,-0.60937 -0.82813,-0.96875 -0.57812,-0.35937 -1.375,-0.35937 -1.28125,0 -2.20312,0.8125 -0.92188,0.79687 -0.92188,3.04687 v 6.42188 z m 18.89496,0 v -16.21875 h 1.98437 v 5.8125 q 1.39063,-1.60938 3.51563,-1.60938 1.3125,0 2.26562,0.51563 0.96875,0.51562 1.375,1.42187 0.42188,0.90625 0.42188,2.64063 v 7.4375 h -1.98438 v -7.4375 q 0,-1.5 -0.65625,-2.17188 -0.64062,-0.6875 -1.82812,-0.6875 -0.89063,0 -1.67188,0.46875 -0.76562,0.45313 -1.10937,1.23438 -0.32813,0.78125 -0.32813,2.17187 v 6.42188 z m 12.60034,-13.92188 v -2.29687 h 2 v 2.29687 z m 0,13.92188 v -11.75 h 2 v 11.75 z m 4.65848,0.96875 1.9375,0.29687 q 0.125,0.89063 0.67187,1.29688 0.75,0.5625 2.03125,0.5625 1.375,0 2.125,-0.5625 0.76563,-0.54688 1.03125,-1.54688 0.15625,-0.60937 0.14063,-2.54687 -1.3125,1.53125 -3.25,1.53125 -2.42188,0 -3.75,-1.75 -1.32813,-1.75 -1.32813,-4.1875 0,-1.6875 0.60938,-3.10938 0.60937,-1.42187 1.76562,-2.1875 1.15625,-0.78125 2.70313,-0.78125 2.09375,0 3.4375,1.6875 v -1.42187 h 1.82812 v 10.15625 q 0,2.75 -0.5625,3.89062 -0.54687,1.14063 -1.76562,1.79688 -1.20313,0.67187 -2.96875,0.67187 -2.10938,0 -3.40625,-0.95312 -1.29688,-0.9375 -1.25,-2.84375 z m 1.65625,-7.04688 q 0,2.3125 0.90625,3.375 0.92187,1.0625 2.3125,1.0625 1.375,0 2.29687,-1.0625 0.92188,-1.0625 0.92188,-3.3125 0,-2.15625 -0.95313,-3.25 -0.95312,-1.09375 -2.29687,-1.09375 -1.32813,0 -2.26563,1.07813 -0.92187,1.07812 -0.92187,3.20312 z m 11.31909,6.07813 v -16.21875 h 1.98437 v 5.8125 q 1.39063,-1.60938 3.51563,-1.60938 1.3125,0 2.26562,0.51563 0.96875,0.51562 1.375,1.42187 0.42188,0.90625 0.42188,2.64063 v 7.4375 h -1.98438 v -7.4375 q 0,-1.5 -0.65625,-2.17188 -0.64062,-0.6875 -1.82812,-0.6875 -0.89063,0 -1.67188,0.46875 -0.76562,0.45313 -1.10937,1.23438 -0.32813,0.78125 -0.32813,2.17187 v 6.42188 z m 11.81906,-4.875 v -2 h 6.125 v 2 z m 8.27908,4.875 v -16.21875 h 1.98438 v 16.21875 z m 13.11163,-3.78125 2.0625,0.25 q -0.48437,1.8125 -1.8125,2.8125 -1.3125,0.98437 -3.35937,0.98437 -2.57813,0 -4.09375,-1.57812 -1.5,-1.59375 -1.5,-4.46875 0,-2.95313 1.53125,-4.59375 1.53125,-1.64063 3.95312,-1.64063 2.35938,0 3.84375,1.60938 1.5,1.59375 1.5,4.51562 0,0.17188 0,0.53125 h -8.76562 q 0.10937,1.9375 1.09375,2.96875 0.98437,1.01563 2.45312,1.01563 1.09375,0 1.85938,-0.5625 0.78125,-0.57813 1.23437,-1.84375 z m -6.53125,-3.21875 h 6.5625 q -0.14062,-1.48438 -0.75,-2.21875 -0.95312,-1.15625 -2.46875,-1.15625 -1.375,0 -2.3125,0.92187 -0.9375,0.90625 -1.03125,2.45313 z m 14.35032,7 -4.46875,-11.75 h 2.10937 l 2.51563,7.03125 q 0.42187,1.14062 0.76562,2.375 0.25,-0.9375 0.73438,-2.23438 l 2.60937,-7.17187 h 2.04688 l -4.45313,11.75 z m 16.10937,-3.78125 2.0625,0.25 q -0.48437,1.8125 -1.8125,2.8125 -1.3125,0.98437 -3.35937,0.98437 -2.57813,0 -4.09375,-1.57812 -1.5,-1.59375 -1.5,-4.46875 0,-2.95313 1.53125,-4.59375 1.53125,-1.64063 3.95312,-1.64063 2.35938,0 3.84375,1.60938 1.5,1.59375 1.5,4.51562 0,0.17188 0,0.53125 h -8.76562 q 0.10937,1.9375 1.09375,2.96875 0.98437,1.01563 2.45312,1.01563 1.09375,0 1.85938,-0.5625 0.78125,-0.57813 1.23437,-1.84375 z m -6.53125,-3.21875 h 6.5625 q -0.14062,-1.48438 -0.75,-2.21875 -0.95312,-1.15625 -2.46875,-1.15625 -1.375,0 -2.3125,0.92187 -0.9375,0.90625 -1.03125,2.45313 z m 11.05347,7 v -16.21875 h 1.98437 v 16.21875 z m 19.03125,-4.29688 1.96875,0.25 q -0.32813,2.01563 -1.65625,3.17188 -1.3125,1.14062 -3.23438,1.14062 -2.42187,0 -3.89062,-1.57812 -1.45313,-1.57813 -1.45313,-4.51563 0,-1.90625 0.625,-3.32812 0.625,-1.4375 1.90625,-2.14063 1.29688,-0.71875 2.8125,-0.71875 1.92188,0 3.14063,0.96875 1.21875,0.96875 1.5625,2.75 l -1.9375,0.29688 q -0.28125,-1.1875 -0.98438,-1.78125 -0.70312,-0.59375 -1.70312,-0.59375 -1.5,0 -2.4375,1.07812 -0.9375,1.07813 -0.9375,3.40625 0,2.375 0.90625,3.45313 0.90625,1.0625 2.35937,1.0625 1.17188,0 1.95313,-0.71875 0.79687,-0.71875 1,-2.20313 z m 2.92187,-1.57812 q 0,-3.26563 1.8125,-4.82813 1.51563,-1.3125 3.70313,-1.3125 2.42187,0 3.95312,1.59375 1.54688,1.57813 1.54688,4.375 0,2.28125 -0.6875,3.57813 -0.67188,1.29687 -1.98438,2.01562 -1.29687,0.71875 -2.82812,0.71875 -2.46875,0 -4,-1.57812 -1.51563,-1.57813 -1.51563,-4.5625 z m 2.04688,0 q 0,2.25 0.98437,3.375 0.98438,1.125 2.48438,1.125 1.48437,0 2.46875,-1.125 0.98437,-1.125 0.98437,-3.4375 0,-2.1875 -1,-3.29688 -0.98437,-1.125 -2.45312,-1.125 -1.5,0 -2.48438,1.125 -0.98437,1.10938 -0.98437,3.35938 z m 11.30346,5.875 v -11.75 h 1.78125 v 1.65625 q 0.54688,-0.875 1.46875,-1.39063 0.92188,-0.53125 2.09375,-0.53125 1.29688,0 2.125,0.54688 0.84375,0.53125 1.1875,1.51562 1.39063,-2.0625 3.625,-2.0625 1.75,0 2.6875,0.96875 0.9375,0.96875 0.9375,2.98438 v 8.0625 h -1.96875 v -7.40625 q 0,-1.1875 -0.20312,-1.70313 -0.1875,-0.53125 -0.70313,-0.84375 -0.5,-0.32812 -1.1875,-0.32812 -1.23437,0 -2.0625,0.82812 -0.8125,0.8125 -0.8125,2.625 v 6.82813 h -2 v -7.64063 q 0,-1.3125 -0.48437,-1.96875 -0.48438,-0.67187 -1.59375,-0.67187 -0.84375,0 -1.5625,0.4375 -0.70313,0.4375 -1.03125,1.29687 -0.3125,0.84375 -0.3125,2.45313 v 6.09375 z m 18.87281,4.5 v -16.25 h 1.8125 v 1.53125 q 0.64062,-0.90625 1.4375,-1.34375 0.8125,-0.45313 1.96875,-0.45313 1.5,0 2.64062,0.78125 1.15625,0.76563 1.73438,2.1875 0.59375,1.40625 0.59375,3.07813 0,1.8125 -0.64063,3.26562 -0.64062,1.4375 -1.875,2.20313 -1.23437,0.76562 -2.59375,0.76562 -1,0 -1.79687,-0.42187 -0.78125,-0.42188 -1.29688,-1.0625 v 5.71875 z m 1.79687,-10.3125 q 0,2.26562 0.92188,3.35937 0.92187,1.07813 2.21875,1.07813 1.32812,0 2.26562,-1.125 0.95313,-1.125 0.95313,-3.46875 0,-2.25 -0.92188,-3.35938 -0.92187,-1.125 -2.20312,-1.125 -1.28125,0 -2.26563,1.1875 -0.96875,1.1875 -0.96875,3.45313 z m 18.49097,5.8125 v -1.71875 q -1.35938,1.98437 -3.71875,1.98437 -1.04688,0 -1.95313,-0.39062 -0.89062,-0.40625 -1.32812,-1 -0.4375,-0.60938 -0.60938,-1.48438 -0.125,-0.59375 -0.125,-1.85937 v -7.28125 h 1.98438 v 6.51562 q 0,1.5625 0.125,2.10938 0.1875,0.78125 0.79687,1.23437 0.60938,0.4375 1.5,0.4375 0.90625,0 1.6875,-0.45312 0.78125,-0.46875 1.10938,-1.25 0.32812,-0.79688 0.32812,-2.29688 v -6.29687 h 1.98438 v 11.75 z m 9.25659,-1.78125 0.28125,1.76562 q -0.84375,0.17188 -1.5,0.17188 -1.07812,0 -1.6875,-0.34375 -0.59375,-0.34375 -0.84375,-0.89063 -0.23437,-0.5625 -0.23437,-2.35937 v -6.76563 h -1.46875 v -1.54687 h 1.46875 v -2.90625 l 1.98437,-1.20313 v 4.10938 h 2 v 1.54687 h -2 v 6.875 q 0,0.84375 0.0937,1.09375 0.10938,0.25 0.34375,0.39063 0.25,0.14062 0.6875,0.14062 0.32813,0 0.875,-0.0781 z m 1.95087,-12.14063 v -2.29687 h 2 v 2.29687 z m 0,13.92188 v -11.75 h 2 v 11.75 z m 5.03351,0 v -11.75 h 1.78125 v 1.67187 q 1.29687,-1.9375 3.75,-1.9375 1.0625,0 1.95312,0.39063 0.89063,0.375 1.32813,1 0.4375,0.60937 0.625,1.46875 0.10937,0.54687 0.10937,1.9375 v 7.21875 h -2 v -7.14063 q 0,-1.21875 -0.23437,-1.8125 -0.23438,-0.60937 -0.82813,-0.96875 -0.57812,-0.35937 -1.375,-0.35937 -1.28125,0 -2.20312,0.8125 -0.92188,0.79687 -0.92188,3.04687 v 6.42188 z m 12.22534,0.96875 1.9375,0.29687 q 0.125,0.89063 0.67187,1.29688 0.75,0.5625 2.03125,0.5625 1.375,0 2.125,-0.5625 0.76563,-0.54688 1.03125,-1.54688 0.15625,-0.60937 0.14063,-2.54687 -1.3125,1.53125 -3.25,1.53125 -2.42188,0 -3.75,-1.75 -1.32813,-1.75 -1.32813,-4.1875 0,-1.6875 0.60938,-3.10938 0.60937,-1.42187 1.76562,-2.1875 1.15625,-0.78125 2.70313,-0.78125 2.09375,0 3.4375,1.6875 v -1.42187 h 1.82812 v 10.15625 q 0,2.75 -0.5625,3.89062 -0.54687,1.14063 -1.76562,1.79688 -1.20313,0.67187 -2.96875,0.67187 -2.10938,0 -3.40625,-0.95312 -1.29688,-0.9375 -1.25,-2.84375 z m 1.65625,-7.04688 q 0,2.3125 0.90625,3.375 0.92187,1.0625 2.3125,1.0625 1.375,0 2.29687,-1.0625 0.92188,-1.0625 0.92188,-3.3125 0,-2.15625 -0.95313,-3.25 -0.95312,-1.09375 -2.29687,-1.09375 -1.32813,0 -2.26563,1.07813 -0.92187,1.07812 -0.92187,3.20312 z m 26.8793,4.17188 q -0.98437,1.09375 -2.15625,1.64062 -1.15625,0.54688 -2.49997,0.54688 -2.48437,0 -3.95312,-1.6875 -1.1875,-1.375 -1.1875,-3.0625 0,-1.5 0.96875,-2.70313 0.96875,-1.21875 2.89062,-2.14062 -1.09375,-1.26563 -1.45312,-2.04688 -0.35938,-0.78125 -0.35938,-1.51562 0,-1.46875 1.14063,-2.54688 1.14062,-1.07812 2.87497,-1.07812 1.65625,0 2.71875,1.03125 1.0625,1.01562 1.0625,2.4375 0,2.3125 -3.0625,3.95312 l 2.90625,3.70313 q 0.5,-0.96875 0.76562,-2.26563 l 2.07813,0.45313 q -0.53125,2.125 -1.4375,3.5 1.10937,1.46875 2.53125,2.48437 l -1.34375,1.57813 q -1.20313,-0.76563 -2.48438,-2.28125 z m -4.04687,-8.45313 q 1.29687,-0.76562 1.67187,-1.34375 0.375,-0.57812 0.375,-1.26562 0,-0.84375 -0.53125,-1.35938 -0.51562,-0.53125 -1.29687,-0.53125 -0.81247,0 -1.34372,0.53125 -0.53125,0.51563 -0.53125,1.26563 0,0.375 0.1875,0.79687 0.1875,0.40625 0.57812,0.875 z m 2.79687,6.875 -3.65622,-4.53125 q -1.60937,0.96875 -2.17187,1.79688 -0.5625,0.8125 -0.5625,1.625 0,0.98437 0.78125,2.04687 0.78125,1.0625 2.21875,1.0625 0.90622,0 1.85934,-0.54687 0.95313,-0.5625 1.53125,-1.45313 z m 21.04682,-0.8125 1.96875,0.25 q -0.32813,2.01563 -1.65625,3.17188 -1.3125,1.14062 -3.23438,1.14062 -2.42187,0 -3.89062,-1.57812 -1.45313,-1.57813 -1.45313,-4.51563 0,-1.90625 0.625,-3.32812 0.625,-1.4375 1.90625,-2.14063 1.29688,-0.71875 2.8125,-0.71875 1.92188,0 3.14063,0.96875 1.21875,0.96875 1.5625,2.75 l -1.9375,0.29688 q -0.28125,-1.1875 -0.98438,-1.78125 -0.70312,-0.59375 -1.70312,-0.59375 -1.5,0 -2.4375,1.07812 -0.9375,1.07813 -0.9375,3.40625 0,2.375 0.90625,3.45313 0.90625,1.0625 2.35937,1.0625 1.17188,0 1.95313,-0.71875 0.79687,-0.71875 1,-2.20313 z m 2.92187,-1.57812 q 0,-3.26563 1.8125,-4.82813 1.51563,-1.3125 3.70313,-1.3125 2.42187,0 3.95312,1.59375 1.54688,1.57813 1.54688,4.375 0,2.28125 -0.6875,3.57813 -0.67188,1.29687 -1.98438,2.01562 -1.29687,0.71875 -2.82812,0.71875 -2.46875,0 -4,-1.57812 -1.51563,-1.57813 -1.51563,-4.5625 z m 2.04688,0 q 0,2.25 0.98437,3.375 0.98438,1.125 2.48438,1.125 1.48437,0 2.46875,-1.125 0.98437,-1.125 0.98437,-3.4375 0,-2.1875 -1,-3.29688 -0.98437,-1.125 -2.45312,-1.125 -1.5,0 -2.48438,1.125 -0.98437,1.10938 -0.98437,3.35938 z m 11.30346,5.875 v -11.75 h 1.78125 v 1.65625 q 0.54688,-0.875 1.46875,-1.39063 0.92188,-0.53125 2.09375,-0.53125 1.29688,0 2.125,0.54688 0.84375,0.53125 1.1875,1.51562 1.39063,-2.0625 3.625,-2.0625 1.75,0 2.6875,0.96875 0.9375,0.96875 0.9375,2.98438 v 8.0625 h -1.96875 v -7.40625 q 0,-1.1875 -0.20312,-1.70313 -0.1875,-0.53125 -0.70313,-0.84375 -0.5,-0.32812 -1.1875,-0.32812 -1.23437,0 -2.0625,0.82812 -0.8125,0.8125 -0.8125,2.625 v 6.82813 h -2 v -7.64063 q 0,-1.3125 -0.48437,-1.96875 -0.48438,-0.67187 -1.59375,-0.67187 -0.84375,0 -1.5625,0.4375 -0.70313,0.4375 -1.03125,1.29687 -0.3125,0.84375 -0.3125,2.45313 v 6.09375 z m 18.87287,0 v -11.75 h 1.78125 v 1.65625 q 0.54687,-0.875 1.46875,-1.39063 0.92187,-0.53125 2.09375,-0.53125 1.29687,0 2.125,0.54688 0.84375,0.53125 1.1875,1.51562 1.39062,-2.0625 3.625,-2.0625 1.75,0 2.6875,0.96875 0.9375,0.96875 0.9375,2.98438 v 8.0625 h -1.96875 v -7.40625 q 0,-1.1875 -0.20313,-1.70313 -0.1875,-0.53125 -0.70312,-0.84375 -0.5,-0.32812 -1.1875,-0.32812 -1.23438,0 -2.0625,0.82812 -0.8125,0.8125 -0.8125,2.625 v 6.82813 h -2 v -7.64063 q 0,-1.3125 -0.48438,-1.96875 -0.48437,-0.67187 -1.59375,-0.67187 -0.84375,0 -1.5625,0.4375 -0.70312,0.4375 -1.03125,1.29687 -0.3125,0.84375 -0.3125,2.45313 v 6.09375 z m 26.5603,0 v -1.71875 q -1.35938,1.98437 -3.71875,1.98437 -1.04688,0 -1.95313,-0.39062 -0.89062,-0.40625 -1.32812,-1 -0.4375,-0.60938 -0.60938,-1.48438 -0.125,-0.59375 -0.125,-1.85937 v -7.28125 h 1.98438 v 6.51562 q 0,1.5625 0.125,2.10938 0.1875,0.78125 0.79687,1.23437 0.60938,0.4375 1.5,0.4375 0.90625,0 1.6875,-0.45312 0.78125,-0.46875 1.10938,-1.25 0.32812,-0.79688 0.32812,-2.29688 v -6.29687 h 1.98438 v 11.75 z m 4.91284,0 v -11.75 h 1.78125 v 1.67187 q 1.29688,-1.9375 3.75,-1.9375 1.0625,0 1.95313,0.39063 0.89062,0.375 1.32812,1 0.4375,0.60937 0.625,1.46875 0.10938,0.54687 0.10938,1.9375 v 7.21875 h -2 v -7.14063 q 0,-1.21875 -0.23438,-1.8125 -0.23437,-0.60937 -0.82812,-0.96875 -0.57813,-0.35937 -1.375,-0.35937 -1.28125,0 -2.20313,0.8125 -0.92187,0.79687 -0.92187,3.04687 v 6.42188 z m 12.60034,-13.92188 v -2.29687 h 2 v 2.29687 z m 0,13.92188 v -11.75 h 2 v 11.75 z m 12.68976,-4.29688 1.96875,0.25 q -0.32812,2.01563 -1.65625,3.17188 -1.3125,1.14062 -3.23437,1.14062 -2.42188,0 -3.89063,-1.57812 -1.45312,-1.57813 -1.45312,-4.51563 0,-1.90625 0.625,-3.32812 0.625,-1.4375 1.90625,-2.14063 1.29687,-0.71875 2.8125,-0.71875 1.92187,0 3.14062,0.96875 1.21875,0.96875 1.5625,2.75 l -1.9375,0.29688 q -0.28125,-1.1875 -0.98437,-1.78125 -0.70313,-0.59375 -1.70313,-0.59375 -1.5,0 -2.4375,1.07812 -0.9375,1.07813 -0.9375,3.40625 0,2.375 0.90625,3.45313 0.90625,1.0625 2.35938,1.0625 1.17187,0 1.95312,-0.71875 0.79688,-0.71875 1,-2.20313 z m 11.32813,2.84375 q -1.10938,0.9375 -2.14063,1.32813 -1.01562,0.39062 -2.1875,0.39062 -1.9375,0 -2.98437,-0.9375 -1.03125,-0.95312 -1.03125,-2.42187 0,-0.85938 0.39062,-1.57813 0.40625,-0.71875 1.03125,-1.14062 0.64063,-0.4375 1.4375,-0.65625 0.59375,-0.15625 1.76563,-0.29688 2.42187,-0.29687 3.5625,-0.6875 0,-0.40625 0,-0.51562 0,-1.21875 -0.5625,-1.71875 -0.76563,-0.67188 -2.26563,-0.67188 -1.40625,0 -2.07812,0.5 -0.67188,0.48438 -0.98438,1.73438 l -1.95312,-0.26563 q 0.26562,-1.25 0.875,-2.01562 0.60937,-0.78125 1.75,-1.1875 1.15625,-0.42188 2.67187,-0.42188 1.51563,0 2.45313,0.35938 0.9375,0.34375 1.375,0.89062 0.45312,0.53125 0.625,1.34375 0.0937,0.51563 0.0937,1.84375 v 2.65625 q 0,2.78125 0.125,3.51563 0.14062,0.73437 0.51562,1.40625 h -2.07812 q -0.3125,-0.625 -0.40625,-1.45313 z m -0.15625,-4.4375 q -1.09375,0.4375 -3.26563,0.75 -1.21875,0.17188 -1.73437,0.39063 -0.5,0.21875 -0.78125,0.65625 -0.28125,0.42187 -0.28125,0.9375 0,0.79687 0.60937,1.32812 0.60938,0.53125 1.76563,0.53125 1.14062,0 2.03125,-0.5 0.90625,-0.5 1.32812,-1.375 0.32813,-0.67187 0.32813,-2 z m 9.44409,4.10938 0.28125,1.76562 q -0.84375,0.17188 -1.5,0.17188 -1.07813,0 -1.6875,-0.34375 -0.59375,-0.34375 -0.84375,-0.89063 -0.23438,-0.5625 -0.23438,-2.35937 v -6.76563 h -1.46875 v -1.54687 h 1.46875 v -2.90625 l 1.98438,-1.20313 v 4.10938 h 2 v 1.54687 h -2 v 6.875 q 0,0.84375 0.0937,1.09375 0.10937,0.25 0.34375,0.39063 0.25,0.14062 0.6875,0.14062 0.32812,0 0.875,-0.0781 z m 1.95087,-12.14063 v -2.29687 h 2 v 2.29687 z m 0,13.92188 v -11.75 h 2 v 11.75 z m 4.2835,-5.875 q 0,-3.26563 1.8125,-4.82813 1.51563,-1.3125 3.70313,-1.3125 2.42187,0 3.95312,1.59375 1.54688,1.57813 1.54688,4.375 0,2.28125 -0.6875,3.57813 -0.67188,1.29687 -1.98438,2.01562 -1.29687,0.71875 -2.82812,0.71875 -2.46875,0 -4,-1.57812 -1.51563,-1.57813 -1.51563,-4.5625 z m 2.04688,0 q 0,2.25 0.98437,3.375 0.98438,1.125 2.48438,1.125 1.48437,0 2.46875,-1.125 0.98437,-1.125 0.98437,-3.4375 0,-2.1875 -1,-3.29688 -0.98437,-1.125 -2.45312,-1.125 -1.5,0 -2.48438,1.125 -0.98437,1.10938 -0.98437,3.35938 z m 11.30347,5.875 v -11.75 h 1.78125 v 1.67187 q 1.29687,-1.9375 3.75,-1.9375 1.0625,0 1.95312,0.39063 0.89063,0.375 1.32813,1 0.4375,0.60937 0.625,1.46875 0.10937,0.54687 0.10937,1.9375 v 7.21875 h -2 v -7.14063 q 0,-1.21875 -0.23437,-1.8125 -0.23438,-0.60937 -0.82813,-0.96875 -0.57812,-0.35937 -1.375,-0.35937 -1.28125,0 -2.20312,0.8125 -0.92188,0.79687 -0.92188,3.04687 v 6.42188 z m 18.8637,0 v -11.75 h 1.79688 v 1.78125 q 0.6875,-1.25 1.26562,-1.64063 0.57813,-0.40625 1.28125,-0.40625 1,0 2.04688,0.64063 l -0.6875,1.84375 q -0.73438,-0.42188 -1.46875,-0.42188 -0.64063,0 -1.17188,0.39063 -0.51562,0.39062 -0.73437,1.09375 -0.32813,1.0625 -0.32813,2.3125 v 6.15625 z m 15.60724,-3.78125 2.0625,0.25 q -0.48437,1.8125 -1.8125,2.8125 -1.3125,0.98437 -3.35937,0.98437 -2.57813,0 -4.09375,-1.57812 -1.5,-1.59375 -1.5,-4.46875 0,-2.95313 1.53125,-4.59375 1.53125,-1.64063 3.95312,-1.64063 2.35938,0 3.84375,1.60938 1.5,1.59375 1.5,4.51562 0,0.17188 0,0.53125 h -8.76562 q 0.10937,1.9375 1.09375,2.96875 0.98437,1.01563 2.45312,1.01563 1.09375,0 1.85938,-0.5625 0.78125,-0.57813 1.23437,-1.84375 z m -6.53125,-3.21875 h 6.5625 q -0.14062,-1.48438 -0.75,-2.21875 -0.95312,-1.15625 -2.46875,-1.15625 -1.375,0 -2.3125,0.92187 -0.9375,0.90625 -1.03125,2.45313 z m 18.58466,11.5 v -5.75 q -0.46875,0.65625 -1.3125,1.09375 -0.82813,0.42187 -1.76563,0.42187 -2.09375,0 -3.60937,-1.67187 -1.5,-1.67188 -1.5,-4.57813 0,-1.76562 0.60937,-3.17187 0.625,-1.40625 1.78125,-2.125 1.17188,-0.73438 2.5625,-0.73438 2.1875,0 3.4375,1.84375 v -1.57812 h 1.78125 v 16.25 z m -6.14063,-10.40625 q 0,2.26562 0.95313,3.40625 0.95312,1.125 2.28125,1.125 1.26562,0 2.1875,-1.07813 0.92187,-1.07812 0.92187,-3.28125 0,-2.34375 -0.96875,-3.51562 -0.96875,-1.1875 -2.28125,-1.1875 -1.29687,0 -2.20312,1.10937 -0.89063,1.09375 -0.89063,3.42188 z m 18.9441,5.90625 v -1.71875 q -1.35938,1.98437 -3.71875,1.98437 -1.04688,0 -1.95313,-0.39062 -0.89062,-0.40625 -1.32812,-1 -0.4375,-0.60938 -0.60938,-1.48438 -0.125,-0.59375 -0.125,-1.85937 v -7.28125 h 1.98438 v 6.51562 q 0,1.5625 0.125,2.10938 0.1875,0.78125 0.79687,1.23437 0.60938,0.4375 1.5,0.4375 0.90625,0 1.6875,-0.45312 0.78125,-0.46875 1.10938,-1.25 0.32812,-0.79688 0.32812,-2.29688 v -6.29687 h 1.98438 v 11.75 z m 4.91284,-13.92188 v -2.29687 h 2 v 2.29687 z m 0,13.92188 v -11.75 h 2 v 11.75 z m 5.00226,0 v -11.75 h 1.79687 v 1.78125 q 0.6875,-1.25 1.26563,-1.64063 0.57812,-0.40625 1.28125,-0.40625 1,0 2.04687,0.64063 l -0.6875,1.84375 q -0.73437,-0.42188 -1.46875,-0.42188 -0.64062,0 -1.17187,0.39063 -0.51563,0.39062 -0.73438,1.09375 -0.32812,1.0625 -0.32812,2.3125 v 6.15625 z m 15.60724,-3.78125 2.0625,0.25 q -0.48438,1.8125 -1.8125,2.8125 -1.3125,0.98437 -3.35938,0.98437 -2.57812,0 -4.09375,-1.57812 -1.5,-1.59375 -1.5,-4.46875 0,-2.95313 1.53125,-4.59375 1.53125,-1.64063 3.95313,-1.64063 2.35937,0 3.84375,1.60938 1.5,1.59375 1.5,4.51562 0,0.17188 0,0.53125 h -8.76563 q 0.10938,1.9375 1.09375,2.96875 0.98438,1.01563 2.45313,1.01563 1.09375,0 1.85937,-0.5625 0.78125,-0.57813 1.23438,-1.84375 z m -6.53125,-3.21875 h 6.5625 q -0.14063,-1.48438 -0.75,-2.21875 -0.95313,-1.15625 -2.46875,-1.15625 -1.375,0 -2.3125,0.92187 -0.9375,0.90625 -1.03125,2.45313 z m 11.10034,7 v -11.75 h 1.78125 v 1.65625 q 0.54687,-0.875 1.46875,-1.39063 0.92187,-0.53125 2.09375,-0.53125 1.29687,0 2.125,0.54688 0.84375,0.53125 1.1875,1.51562 1.39062,-2.0625 3.625,-2.0625 1.75,0 2.6875,0.96875 0.9375,0.96875 0.9375,2.98438 v 8.0625 h -1.96875 v -7.40625 q 0,-1.1875 -0.20313,-1.70313 -0.1875,-0.53125 -0.70312,-0.84375 -0.5,-0.32812 -1.1875,-0.32812 -1.23438,0 -2.0625,0.82812 -0.8125,0.8125 -0.8125,2.625 v 6.82813 h -2 v -7.64063 q 0,-1.3125 -0.48438,-1.96875 -0.48437,-0.67187 -1.59375,-0.67187 -0.84375,0 -1.5625,0.4375 -0.70312,0.4375 -1.03125,1.29687 -0.3125,0.84375 -0.3125,2.45313 v 6.09375 z m 26.90405,-3.78125 2.0625,0.25 q -0.48437,1.8125 -1.8125,2.8125 -1.3125,0.98437 -3.35937,0.98437 -2.57813,0 -4.09375,-1.57812 -1.5,-1.59375 -1.5,-4.46875 0,-2.95313 1.53125,-4.59375 1.53125,-1.64063 3.95312,-1.64063 2.35938,0 3.84375,1.60938 1.5,1.59375 1.5,4.51562 0,0.17188 0,0.53125 h -8.76562 q 0.10937,1.9375 1.09375,2.96875 0.98437,1.01563 2.45312,1.01563 1.09375,0 1.85938,-0.5625 0.78125,-0.57813 1.23437,-1.84375 z m -6.53125,-3.21875 h 6.5625 q -0.14062,-1.48438 -0.75,-2.21875 -0.95312,-1.15625 -2.46875,-1.15625 -1.375,0 -2.3125,0.92187 -0.9375,0.90625 -1.03125,2.45313 z m 11.10034,7 v -11.75 h 1.78125 v 1.67187 q 1.29688,-1.9375 3.75,-1.9375 1.0625,0 1.95313,0.39063 0.89062,0.375 1.32812,1 0.4375,0.60937 0.625,1.46875 0.10938,0.54687 0.10938,1.9375 v 7.21875 h -2 v -7.14063 q 0,-1.21875 -0.23438,-1.8125 -0.23437,-0.60937 -0.82812,-0.96875 -0.57813,-0.35937 -1.375,-0.35937 -1.28125,0 -2.20313,0.8125 -0.92187,0.79687 -0.92187,3.04687 v 6.42188 z m 16.94409,-1.78125 0.28125,1.76562 q -0.84375,0.17188 -1.5,0.17188 -1.07812,0 -1.6875,-0.34375 -0.59375,-0.34375 -0.84375,-0.89063 -0.23437,-0.5625 -0.23437,-2.35937 v -6.76563 h -1.46875 v -1.54687 h 1.46875 v -2.90625 l 1.98437,-1.20313 v 4.10938 h 2 v 1.54687 h -2 v 6.875 q 0,0.84375 0.0937,1.09375 0.10938,0.25 0.34375,0.39063 0.25,0.14062 0.6875,0.14062 0.32813,0 0.875,-0.0781 z m 1.154,-1.71875 1.96875,-0.3125 q 0.15625,1.17187 0.90625,1.8125 0.76562,0.625 2.125,0.625 1.375,0 2.03125,-0.54688 0.67187,-0.5625 0.67187,-1.3125 0,-0.6875 -0.57812,-1.0625 -0.42188,-0.26562 -2.04688,-0.6875 -2.1875,-0.54687 -3.03125,-0.95312 -0.84375,-0.40625 -1.28125,-1.10938 -0.4375,-0.71875 -0.4375,-1.57812 0,-0.79688 0.35938,-1.45313 0.35937,-0.67187 0.98437,-1.125 0.45313,-0.32812 1.25,-0.5625 0.8125,-0.25 1.73438,-0.25 1.375,0 2.42187,0.40625 1.04688,0.39063 1.54688,1.07813 0.5,0.67187 0.6875,1.8125 l -1.95313,0.26562 q -0.125,-0.90625 -0.76562,-1.40625 -0.64063,-0.51562 -1.79688,-0.51562 -1.375,0 -1.96875,0.45312 -0.57812,0.45313 -0.57812,1.0625 0,0.39063 0.25,0.6875 0.23437,0.32813 0.75,0.53125 0.3125,0.125 1.76562,0.51563 2.10938,0.5625 2.9375,0.92187 0.84375,0.35938 1.3125,1.04688 0.48438,0.6875 0.48438,1.70312 0,1 -0.57813,1.875 -0.57812,0.875 -1.67187,1.35938 -1.09375,0.48437 -2.48438,0.48437 -2.29687,0 -3.5,-0.95312 -1.1875,-0.95313 -1.51562,-2.8125 z"
     fill-rule="nonzero"
     id="path43" />
  <path
     fill="#00dac6"
     d="M 110.34714,181.47223 H 252.2054 v 79.40158 H 110.34714 Z"
     fill-rule="evenodd"
     id="path45" />
  <path
     stroke="#ffffff"
     stroke-width="1"
     stroke-linejoin="round"
     stroke-linecap="butt"
     d="M 110.34714,181.47223 H 252.2054 v 79.40158 H 110.34714 Z"
     fill-rule="evenodd"
     id="path47" />
  <path
     fill="#000000"
     d="m 140.24975,229.43302 v -16.21875 h 11.71875 v 1.92187 h -9.57813 v 4.95313 h 8.96875 v 1.90625 h -8.96875 v 5.53125 h 9.95313 v 1.90625 z m 19.15842,-1.78125 0.28125,1.76562 q -0.84375,0.17188 -1.5,0.17188 -1.07813,0 -1.6875,-0.34375 -0.59375,-0.34375 -0.84375,-0.89063 -0.23438,-0.5625 -0.23438,-2.35937 v -6.76563 h -1.46875 v -1.54687 h 1.46875 v -2.90625 l 1.98438,-1.20313 v 4.10938 h 2 v 1.54687 h -2 v 6.875 q 0,0.84375 0.0937,1.09375 0.10937,0.25 0.34375,0.39063 0.25,0.14062 0.6875,0.14062 0.32812,0 0.875,-0.0781 z m 1.95088,1.78125 v -16.21875 h 1.98437 v 5.8125 q 1.39063,-1.60938 3.51563,-1.60938 1.3125,0 2.26562,0.51563 0.96875,0.51562 1.375,1.42187 0.42188,0.90625 0.42188,2.64063 v 7.4375 h -1.98438 v -7.4375 q 0,-1.5 -0.65625,-2.17188 -0.64062,-0.6875 -1.82812,-0.6875 -0.89063,0 -1.67188,0.46875 -0.76562,0.45313 -1.10937,1.23438 -0.32813,0.78125 -0.32813,2.17187 v 6.42188 z m 20.63158,-3.78125 2.0625,0.25 q -0.48438,1.8125 -1.8125,2.8125 -1.3125,0.98437 -3.35938,0.98437 -2.57812,0 -4.09375,-1.57812 -1.5,-1.59375 -1.5,-4.46875 0,-2.95313 1.53125,-4.59375 1.53125,-1.64063 3.95313,-1.64063 2.35937,0 3.84375,1.60938 1.5,1.59375 1.5,4.51562 0,0.17188 0,0.53125 H 175.35 q 0.10938,1.9375 1.09375,2.96875 0.98438,1.01563 2.45313,1.01563 1.09375,0 1.85937,-0.5625 0.78125,-0.57813 1.23438,-1.84375 z m -6.53125,-3.21875 h 6.5625 q -0.14063,-1.48438 -0.75,-2.21875 -0.95313,-1.15625 -2.46875,-1.15625 -1.375,0 -2.3125,0.92187 -0.9375,0.90625 -1.03125,2.45313 z m 11.06907,7 v -11.75 h 1.79688 v 1.78125 q 0.6875,-1.25 1.26562,-1.64063 0.57813,-0.40625 1.28125,-0.40625 1,0 2.04688,0.64063 l -0.6875,1.84375 q -0.73438,-0.42188 -1.46875,-0.42188 -0.64063,0 -1.17188,0.39063 -0.51562,0.39062 -0.73437,1.09375 -0.32813,1.0625 -0.32813,2.3125 v 6.15625 z m 7.57596,0 v -11.75 h 1.78125 v 1.67187 q 1.29688,-1.9375 3.75,-1.9375 1.0625,0 1.95313,0.39063 0.89062,0.375 1.32812,1 0.4375,0.60937 0.625,1.46875 0.10938,0.54687 0.10938,1.9375 v 7.21875 h -2 v -7.14063 q 0,-1.21875 -0.23438,-1.8125 -0.23437,-0.60937 -0.82812,-0.96875 -0.57813,-0.35937 -1.375,-0.35937 -1.28125,0 -2.20313,0.8125 -0.92187,0.79687 -0.92187,3.04687 v 6.42188 z m 20.63158,-3.78125 2.0625,0.25 q -0.48438,1.8125 -1.8125,2.8125 -1.3125,0.98437 -3.35938,0.98437 -2.57812,0 -4.09375,-1.57812 -1.5,-1.59375 -1.5,-4.46875 0,-2.95313 1.53125,-4.59375 1.53125,-1.64063 3.95313,-1.64063 2.35937,0 3.84375,1.60938 1.5,1.59375 1.5,4.51562 0,0.17188 0,0.53125 h -8.76563 q 0.10938,1.9375 1.09375,2.96875 0.98438,1.01563 2.45313,1.01563 1.09375,0 1.85937,-0.5625 0.78125,-0.57813 1.23438,-1.84375 z m -6.53125,-3.21875 h 6.5625 q -0.14063,-1.48438 -0.75,-2.21875 -0.95313,-1.15625 -2.46875,-1.15625 -1.375,0 -2.3125,0.92187 -0.9375,0.90625 -1.03125,2.45313 z m 15.44408,5.21875 0.28125,1.76562 q -0.84375,0.17188 -1.5,0.17188 -1.07813,0 -1.6875,-0.34375 -0.59375,-0.34375 -0.84375,-0.89063 -0.23438,-0.5625 -0.23438,-2.35937 v -6.76563 h -1.46875 v -1.54687 h 1.46875 v -2.90625 l 1.98438,-1.20313 v 4.10938 h 2 v 1.54687 h -2 v 6.875 q 0,0.84375 0.0937,1.09375 0.10937,0.25 0.34375,0.39063 0.25,0.14062 0.6875,0.14062 0.32812,0 0.875,-0.0781 z"
     fill-rule="nonzero"
     id="path49" />
  <path
     fill="#00dac6"
     d="m 261.65439,181.47223 h 141.85825 v 79.40158 H 261.65439 Z"
     fill-rule="evenodd"
     id="path51" />
  <path
     stroke="#ffffff"
     stroke-width="1"
     stroke-linejoin="round"
     stroke-linecap="butt"
     d="m 261.65439,181.47223 h 141.85825 v 79.40158 H 261.65439 Z"
     fill-rule="evenodd"
     id="path53" />
  <path
     fill="#000000"
     d="m 321.97859,223.74552 2.15625,0.54687 q -0.67188,2.64063 -2.4375,4.03125 -1.75,1.39063 -4.28125,1.39063 -2.625,0 -4.26563,-1.0625 -1.64062,-1.07813 -2.5,-3.09375 -0.85937,-2.03125 -0.85937,-4.35938 0,-2.53125 0.96875,-4.40625 0.96875,-1.89062 2.75,-2.875 1.79687,-0.98437 3.9375,-0.98437 2.4375,0 4.09375,1.25 1.65625,1.23437 2.3125,3.48437 l -2.10938,0.5 q -0.5625,-1.78125 -1.64062,-2.57812 -1.07813,-0.8125 -2.70313,-0.8125 -1.85937,0 -3.125,0.90625 -1.25,0.89062 -1.76562,2.40625 -0.5,1.5 -0.5,3.10937 0,2.0625 0.59375,3.60938 0.60937,1.53125 1.875,2.29687 1.28125,0.76563 2.76562,0.76563 1.79688,0 3.04688,-1.03125 1.25,-1.04688 1.6875,-3.09375 z m 3.01788,5.6875 6.21875,-16.21875 h 2.3125 l 6.64063,16.21875 h -2.4375 l -1.89063,-4.90625 h -6.78125 l -1.78125,4.90625 z m 4.67188,-6.65625 h 5.5 l -1.6875,-4.5 q -0.78125,-2.04688 -1.15625,-3.35938 -0.3125,1.5625 -0.875,3.09375 z m 12.18967,6.65625 v -16.21875 h 2.20312 l 8.53125,12.73437 v -12.73437 h 2.04688 v 16.21875 h -2.20313 l -8.51562,-12.75 v 12.75 z"
     fill-rule="nonzero"
     id="path55" />
  <path
     fill="#00dac6"
     d="m 412.96157,181.47223 h 141.85828 v 79.40158 H 412.96157 Z"
     fill-rule="evenodd"
     id="path57" />
  <path
     stroke="#ffffff"
     stroke-width="1"
     stroke-linejoin="round"
     stroke-linecap="butt"
     d="m 412.96157,181.47223 h 141.85828 v 79.40158 H 412.96157 Z"
     fill-rule="evenodd"
     id="path59" />
  <path
     fill="#000000"
     d="m 445.04249,229.43302 -4.29687,-16.21875 h 2.20312 l 2.45313,10.625 q 0.40625,1.67187 0.6875,3.32812 0.625,-2.60937 0.73437,-3 l 3.09375,-10.95312 h 2.57813 l 2.32812,8.20312 q 0.875,3.0625 1.26563,5.75 0.3125,-1.54687 0.79687,-3.53125 l 2.54688,-10.42187 h 2.15625 l -4.4375,16.21875 h -2.07813 l -3.40625,-12.35938 q -0.4375,-1.54687 -0.51562,-1.90625 -0.25,1.125 -0.48438,1.90625 l -3.4375,12.35938 z m 18.30594,-13.92188 v -2.29687 h 2 v 2.29687 z m 0,13.92188 v -11.75 h 2 v 11.75 z m 5.00223,0 v -11.75 h 1.79687 v 1.78125 q 0.6875,-1.25 1.26563,-1.64063 0.57812,-0.40625 1.28125,-0.40625 1,0 2.04687,0.64063 l -0.6875,1.84375 q -0.73437,-0.42188 -1.46875,-0.42188 -0.64062,0 -1.17187,0.39063 -0.51563,0.39062 -0.73438,1.09375 -0.32812,1.0625 -0.32812,2.3125 v 6.15625 z m 15.60721,-3.78125 2.0625,0.25 q -0.48438,1.8125 -1.8125,2.8125 -1.3125,0.98437 -3.35938,0.98437 -2.57812,0 -4.09375,-1.57812 -1.5,-1.59375 -1.5,-4.46875 0,-2.95313 1.53125,-4.59375 1.53125,-1.64063 3.95313,-1.64063 2.35937,0 3.84375,1.60938 1.5,1.59375 1.5,4.51562 0,0.17188 0,0.53125 h -8.76563 q 0.10938,1.9375 1.09375,2.96875 0.98438,1.01563 2.45313,1.01563 1.09375,0 1.85937,-0.5625 0.78125,-0.57813 1.23438,-1.84375 z m -6.53125,-3.21875 h 6.5625 q -0.14063,-1.48438 -0.75,-2.21875 -0.95313,-1.15625 -2.46875,-1.15625 -1.375,0 -2.3125,0.92187 -0.9375,0.90625 -1.03125,2.45313 z m 11.05346,7 v -16.21875 h 1.98435 v 16.21875 z m 13.11161,-3.78125 2.0625,0.25 q -0.48438,1.8125 -1.8125,2.8125 -1.3125,0.98437 -3.35938,0.98437 -2.57812,0 -4.09375,-1.57812 -1.5,-1.59375 -1.5,-4.46875 0,-2.95313 1.53125,-4.59375 1.53125,-1.64063 3.95313,-1.64063 2.35937,0 3.84375,1.60938 1.5,1.59375 1.5,4.51562 0,0.17188 0,0.53125 h -8.76563 q 0.10938,1.9375 1.09375,2.96875 0.98438,1.01563 2.45313,1.01563 1.09375,0 1.85937,-0.5625 0.78125,-0.57813 1.23438,-1.84375 z m -6.53125,-3.21875 h 6.5625 q -0.14063,-1.48438 -0.75,-2.21875 -0.95313,-1.15625 -2.46875,-1.15625 -1.375,0 -2.3125,0.92187 -0.9375,0.90625 -1.03125,2.45313 z m 10.30346,3.5 1.96875,-0.3125 q 0.15625,1.17187 0.90625,1.8125 0.76563,0.625 2.125,0.625 1.375,0 2.03125,-0.54688 0.67188,-0.5625 0.67188,-1.3125 0,-0.6875 -0.57813,-1.0625 -0.42187,-0.26562 -2.04687,-0.6875 -2.1875,-0.54687 -3.03125,-0.95312 -0.84375,-0.40625 -1.28125,-1.10938 -0.4375,-0.71875 -0.4375,-1.57812 0,-0.79688 0.35937,-1.45313 0.35938,-0.67187 0.98438,-1.125 0.45312,-0.32812 1.25,-0.5625 0.8125,-0.25 1.73437,-0.25 1.375,0 2.42188,0.40625 1.04687,0.39063 1.54687,1.07813 0.5,0.67187 0.6875,1.8125 l -1.95312,0.26562 q -0.125,-0.90625 -0.76563,-1.40625 -0.64062,-0.51562 -1.79687,-0.51562 -1.375,0 -1.96875,0.45312 -0.57813,0.45313 -0.57813,1.0625 0,0.39063 0.25,0.6875 0.23438,0.32813 0.75,0.53125 0.3125,0.125 1.76563,0.51563 2.10937,0.5625 2.9375,0.92187 0.84375,0.35938 1.3125,1.04688 0.48437,0.6875 0.48437,1.70312 0,1 -0.57812,1.875 -0.57813,0.875 -1.67188,1.35938 -1.09375,0.48437 -2.48437,0.48437 -2.29688,0 -3.5,-0.95312 -1.1875,-0.95313 -1.51563,-2.8125 z m 11.32813,0 1.96875,-0.3125 q 0.15625,1.17187 0.90625,1.8125 0.76562,0.625 2.125,0.625 1.375,0 2.03125,-0.54688 0.67187,-0.5625 0.67187,-1.3125 0,-0.6875 -0.57812,-1.0625 -0.42188,-0.26562 -2.04688,-0.6875 -2.1875,-0.54687 -3.03125,-0.95312 -0.84375,-0.40625 -1.28125,-1.10938 -0.4375,-0.71875 -0.4375,-1.57812 0,-0.79688 0.35938,-1.45313 0.35937,-0.67187 0.98437,-1.125 0.45313,-0.32812 1.25,-0.5625 0.8125,-0.25 1.73438,-0.25 1.375,0 2.42187,0.40625 1.04688,0.39063 1.54688,1.07813 0.5,0.67187 0.6875,1.8125 l -1.95313,0.26562 q -0.125,-0.90625 -0.76562,-1.40625 -0.64063,-0.51562 -1.79688,-0.51562 -1.375,0 -1.96875,0.45312 -0.57812,0.45313 -0.57812,1.0625 0,0.39063 0.25,0.6875 0.23437,0.32813 0.75,0.53125 0.3125,0.125 1.76562,0.51563 2.10938,0.5625 2.9375,0.92187 0.84375,0.35938 1.3125,1.04688 0.48438,0.6875 0.48438,1.70312 0,1 -0.57813,1.875 -0.57812,0.875 -1.67187,1.35938 -1.09375,0.48437 -2.48438,0.48437 -2.29687,0 -3.5,-0.95312 -1.1875,-0.95313 -1.51562,-2.8125 z"
     fill-rule="nonzero"
     id="path61" />
  <path
     fill="#00dac6"
     d="m 564.26882,181.47223 h 141.85822 v 79.40158 H 564.26882 Z"
     fill-rule="evenodd"
     id="path63" />
  <path
     stroke="#ffffff"
     stroke-width="1"
     stroke-linejoin="round"
     stroke-linecap="butt"
     d="m 564.26882,181.47223 h 141.85822 v 79.40158 H 564.26882 Z"
     fill-rule="evenodd"
     id="path65" />
  <path
     fill="#000000"
     d="m 607.25159,224.2299 2.03125,-0.1875 q 0.14062,1.21875 0.65625,2 0.53125,0.78125 1.64062,1.26563 1.10938,0.48437 2.48438,0.48437 1.23437,0 2.17187,-0.35937 0.9375,-0.375 1.39063,-1.01563 0.46875,-0.64062 0.46875,-1.39062 0,-0.76563 -0.45313,-1.32813 -0.4375,-0.57812 -1.45312,-0.95312 -0.65625,-0.26563 -2.89063,-0.79688 -2.23437,-0.53125 -3.125,-1.01562 -1.15625,-0.60938 -1.73437,-1.5 -0.5625,-0.90625 -0.5625,-2.03125 0,-1.21875 0.6875,-2.28125 0.70312,-1.07813 2.03125,-1.625 1.34375,-0.5625 2.98437,-0.5625 1.8125,0 3.1875,0.59375 1.375,0.57812 2.10938,1.70312 0.75,1.125 0.79687,2.54688 l -2.04687,0.15625 q -0.17188,-1.53125 -1.14063,-2.3125 -0.95312,-0.79688 -2.8125,-0.79688 -1.95312,0 -2.84375,0.71875 -0.89062,0.71875 -0.89062,1.71875 0,0.875 0.64062,1.4375 0.60938,0.5625 3.21875,1.15625 2.625,0.59375 3.59375,1.03125 1.42188,0.65625 2.09375,1.65625 0.67188,1 0.67188,2.3125 0,1.29688 -0.73438,2.4375 -0.73437,1.14063 -2.125,1.78125 -1.39062,0.64063 -3.125,0.64063 -2.20312,0 -3.70312,-0.64063 -1.48438,-0.64062 -2.32813,-1.92187 -0.84375,-1.29688 -0.89062,-2.92188 z m 23.6272,1.42188 2.0625,0.25 q -0.48438,1.8125 -1.8125,2.8125 -1.3125,0.98437 -3.35944,0.98437 -2.57812,0 -4.09375,-1.57812 -1.5,-1.59375 -1.5,-4.46875 0,-2.95313 1.53125,-4.59375 1.53125,-1.64063 3.95313,-1.64063 2.35943,0 3.84381,1.60938 1.5,1.59375 1.5,4.51562 0,0.17188 0,0.53125 h -8.76569 q 0.10938,1.9375 1.09375,2.96875 0.98438,1.01563 2.45313,1.01563 1.09381,0 1.85943,-0.5625 0.78125,-0.57813 1.23438,-1.84375 z m -6.53131,-3.21875 h 6.56256 q -0.14063,-1.48438 -0.75,-2.21875 -0.95313,-1.15625 -2.46881,-1.15625 -1.375,0 -2.3125,0.92187 -0.9375,0.90625 -1.03125,2.45313 z m 11.06909,7 v -11.75 h 1.79687 v 1.78125 q 0.6875,-1.25 1.26563,-1.64063 0.57812,-0.40625 1.28125,-0.40625 1,0 2.04687,0.64063 l -0.6875,1.84375 q -0.73437,-0.42188 -1.46875,-0.42188 -0.64062,0 -1.17187,0.39063 -0.51563,0.39062 -0.73438,1.09375 -0.32812,1.0625 -0.32812,2.3125 v 6.15625 z m 7.57599,-13.92188 v -2.29687 h 2 v 2.29687 z m 0,13.92188 v -11.75 h 2 v 11.75 z m 12.68975,-1.45313 q -1.10937,0.9375 -2.14062,1.32813 -1.01563,0.39062 -2.1875,0.39062 -1.9375,0 -2.98438,-0.9375 -1.03125,-0.95312 -1.03125,-2.42187 0,-0.85938 0.39063,-1.57813 0.40625,-0.71875 1.03125,-1.14062 0.64062,-0.4375 1.4375,-0.65625 0.59375,-0.15625 1.76562,-0.29688 2.42188,-0.29687 3.5625,-0.6875 0,-0.40625 0,-0.51562 0,-1.21875 -0.5625,-1.71875 -0.76562,-0.67188 -2.26562,-0.67188 -1.40625,0 -2.07813,0.5 -0.67187,0.48438 -0.98437,1.73438 l -1.95313,-0.26563 q 0.26563,-1.25 0.875,-2.01562 0.60938,-0.78125 1.75,-1.1875 1.15625,-0.42188 2.67188,-0.42188 1.51562,0 2.45312,0.35938 0.9375,0.34375 1.375,0.89062 0.45313,0.53125 0.625,1.34375 0.0937,0.51563 0.0937,1.84375 v 2.65625 q 0,2.78125 0.125,3.51563 0.14063,0.73437 0.51563,1.40625 h -2.07813 q -0.3125,-0.625 -0.40625,-1.45313 z m -0.15625,-4.4375 q -1.09375,0.4375 -3.26562,0.75 -1.21875,0.17188 -1.73438,0.39063 -0.5,0.21875 -0.78125,0.65625 -0.28125,0.42187 -0.28125,0.9375 0,0.79687 0.60938,1.32812 0.60937,0.53125 1.76562,0.53125 1.14063,0 2.03125,-0.5 0.90625,-0.5 1.32813,-1.375 0.32812,-0.67187 0.32812,-2 z m 5.05341,5.89063 v -16.21875 h 1.98438 v 16.21875 z"
     fill-rule="nonzero"
     id="path67" />
  <path
     fill="#00dac6"
     d="m 715.57599,181.47223 h 141.85828 v 79.40158 H 715.57599 Z"
     fill-rule="evenodd"
     id="path69" />
  <path
     stroke="#ffffff"
     stroke-width="1"
     stroke-linejoin="round"
     stroke-linecap="butt"
     d="m 715.57599,181.47223 h 141.85828 v 79.40158 H 715.57599 Z"
     fill-rule="evenodd"
     id="path71" />
  <path
     fill="#000000"
     d="m 777.81765,229.43302 v -2.26563 h 2.26563 v 2.26563 z m 7.5625,0 v -2.26563 h 2.26563 v 2.26563 z m 7.54688,0 v -2.26563 h 2.26562 v 2.26563 z"
     fill-rule="nonzero"
     id="path73" />
  <path
     fill="#000000"
     fill-opacity="0"
     d="M 0,270.21784 V 81.39896 h 69.41733 v 188.81888 z"
     fill-rule="evenodd"
     id="path75" />
  <path
     fill="#000000"
     d="M 21.331787,211.78525 21.191162,210.129 q 1,-0.125 1.640625,-0.54688 0.640625,-0.4375 1.046875,-1.34375 0.390625,-0.92187 0.390625,-2.0625 0,-1 -0.296875,-1.78125 -0.296875,-0.78125 -0.8125,-1.15625 -0.53125,-0.375 -1.15625,-0.375 -0.625,0 -1.09375,0.375 -0.46875,0.35938 -0.796875,1.1875 -0.203125,0.54688 -0.640625,2.39063 -0.453125,1.82812 -0.84375,2.5625 -0.5,0.96875 -1.234375,1.4375 -0.75,0.46875 -1.671875,0.46875 -1,0 -1.875,-0.57813 -0.890625,-0.57812 -1.34375,-1.67187 -0.453125,-1.10938 -0.453125,-2.45313 0,-1.48437 0.484375,-2.60937 0.46875,-1.14063 1.40625,-1.75 0.921875,-0.60938 2.09375,-0.65625 l 0.125,1.6875 q -1.265625,0.14062 -1.90625,0.9375 -0.65625,0.78125 -0.65625,2.3125 0,1.60937 0.59375,2.34375 0.59375,0.73437 1.421875,0.73437 0.71875,0 1.171875,-0.53125 0.46875,-0.5 0.96875,-2.65625 0.484375,-2.15625 0.84375,-2.95312 0.53125,-1.17188 1.359375,-1.71875 0.828125,-0.5625 1.90625,-0.5625 1.0625,0 2.015625,0.60937 0.9375,0.60938 1.46875,1.75 0.515625,1.14063 0.515625,2.57813 0,1.8125 -0.53125,3.04687 -0.53125,1.21875 -1.59375,1.92188 -1.0625,0.6875 -2.40625,0.71875 z m 0.75,-19.1467 0.21875,-1.60937 q 1.65625,0.26562 2.609375,1.35937 0.9375,1.07813 0.9375,2.67188 0,1.98437 -1.296875,3.1875 -1.296875,1.20312 -3.71875,1.20312 -1.578125,0 -2.75,-0.51562 -1.171875,-0.51563 -1.75,-1.57813 -0.59375,-1.0625 -0.59375,-2.3125 0,-1.57812 0.796875,-2.57812 0.796875,-1 2.265625,-1.28125 l 0.234375,1.59375 q -0.96875,0.23437 -1.453125,0.8125 -0.5,0.57812 -0.5,1.39062 0,1.23438 0.890625,2.01563 0.890625,0.78125 2.8125,0.78125 1.953125,0 2.84375,-0.75 0.875,-0.75 0.875,-1.95313 0,-0.96875 -0.59375,-1.60937 -0.59375,-0.65625 -1.828125,-0.82813 z m -1.296875,-2.40625 q -2.6875,0 -3.96875,-1.48437 -1.078125,-1.25 -1.078125,-3.04688 0,-2 1.3125,-3.26562 1.296875,-1.26563 3.609375,-1.26563 1.859375,0 2.9375,0.5625 1.0625,0.5625 1.65625,1.64063 0.59375,1.0625 0.59375,2.32812 0,2.03125 -1.296875,3.28125 -1.3125,1.25 -3.765625,1.25 z m 0,-1.6875 q 1.859375,0 2.796875,-0.79687 0.921875,-0.8125 0.921875,-2.04688 0,-1.21875 -0.921875,-2.03125 -0.9375,-0.8125 -2.84375,-0.8125 -1.796875,0 -2.71875,0.8125 -0.921875,0.8125 -0.921875,2.03125 0,1.23438 0.921875,2.04688 0.90625,0.79687 2.765625,0.79687 z m 8.546875,-9.29761 h -13.375 v -1.48437 h 1.25 q -0.734375,-0.53125 -1.09375,-1.1875 -0.375,-0.67188 -0.375,-1.625 0,-1.23438 0.640625,-2.17188 0.625,-0.95312 1.796875,-1.4375 1.15625,-0.48437 2.546875,-0.48437 1.484375,0 2.671875,0.53125 1.1875,0.53125 1.828125,1.54687 0.625,1.01563 0.625,2.14063 0,0.8125 -0.34375,1.46875 -0.34375,0.65625 -0.875,1.0625 h 4.703125 z m -8.484375,-1.48437 q 1.859375,0 2.765625,-0.75 0.890625,-0.76563 0.890625,-1.82813 0,-1.09375 -0.921875,-1.875 -0.9375,-0.78125 -2.875,-0.78125 -1.84375,0 -2.765625,0.76563 -0.921875,0.75 -0.921875,1.8125 0,1.04687 0.984375,1.85937 0.96875,0.79688 2.84375,0.79688 z m 1.671875,-15.51633 0.203125,-1.6875 q 1.484375,0.40625 2.3125,1.48438 0.8125,1.07812 0.8125,2.76562 0,2.125 -1.296875,3.375 -1.3125,1.23438 -3.671875,1.23438 -2.453125,0 -3.796875,-1.25 -1.34375,-1.26563 -1.34375,-3.26563 0,-1.9375 1.328125,-3.15625 1.3125,-1.23437 3.703125,-1.23437 0.15625,0 0.4375,0 v 7.21875 q 1.59375,-0.0937 2.453125,-0.90625 0.84375,-0.8125 0.84375,-2.01563 0,-0.90625 -0.46875,-1.54687 -0.484375,-0.64063 -1.515625,-1.01563 z m -2.65625,5.39063 v -5.40625 q -1.21875,0.10937 -1.828125,0.625 -0.953125,0.78125 -0.953125,2.03125 0,1.125 0.765625,1.90625 0.75,0.76562 2.015625,0.84375 z m 0.921875,-13.71527 q -2.6875,0 -3.96875,-1.48438 -1.078125,-1.25 -1.078125,-3.04687 0,-2 1.3125,-3.26563 1.296875,-1.26562 3.609375,-1.26562 1.859375,0 2.9375,0.5625 1.0625,0.5625 1.65625,1.64062 0.59375,1.0625 0.59375,2.32813 0,2.03125 -1.296875,3.28125 -1.3125,1.25 -3.765625,1.25 z m 0,-1.6875 q 1.859375,0 2.796875,-0.79688 0.921875,-0.8125 0.921875,-2.04687 0,-1.21875 -0.921875,-2.03125 -0.9375,-0.8125 -2.84375,-0.8125 -1.796875,0 -2.71875,0.8125 -0.921875,0.8125 -0.921875,2.03125 0,1.23437 0.921875,2.04687 0.90625,0.79688 2.765625,0.79688 z m 4.84375,-9.68823 h -8.40625 v 1.45312 h -1.265625 v -1.45312 h -1.03125 q -0.96875,0 -1.453125,-0.17188 -0.640625,-0.23437 -1.03125,-0.82812 -0.390625,-0.59375 -0.390625,-1.67188 0,-0.6875 0.15625,-1.53125 l 1.4375,0.25 q -0.09375,0.5 -0.09375,0.95313 0,0.75 0.328125,1.0625 0.3125,0.3125 1.1875,0.3125 h 0.890625 v -1.89063 h 1.265625 v 1.89063 h 8.40625 z"
     fill-rule="nonzero"
     id="path77" />
  <path
     fill="#000000"
     d="m 48.621167,201.6242 0.640625,-2.53125 q 3.109375,0.79688 4.75,2.85938 1.625,2.0625 1.625,5.04687 0,3.09375 -1.25,5.03125 -1.265625,1.92188 -3.640625,2.9375 -2.390625,1 -5.125,1 -2.984375,0 -5.203129,-1.14062 -2.21875,-1.14063 -3.359375,-3.23438 -1.15625,-2.10937 -1.15625,-4.625 0,-2.875 1.46875,-4.82812 1.453125,-1.95313 4.09375,-2.71875 l 0.578125,2.48437 q -2.078125,0.67188 -3.03125,1.9375 -0.953125,1.25 -0.953125,3.17188 0,2.20312 1.0625,3.6875 1.046875,1.46875 2.828125,2.0625 1.781254,0.59375 3.656254,0.59375 2.4375,0 4.265625,-0.70313 1.8125,-0.70312 2.71875,-2.20312 0.890625,-1.5 0.890625,-3.25 0,-2.10938 -1.21875,-3.57813 -1.234375,-1.48437 -3.640625,-2 z m 12.015625,-5.23465 -2.203125,0.26563 q 0.203125,-0.76563 0.203125,-1.34375 0,-0.78125 -0.265625,-1.25 -0.25,-0.46875 -0.71875,-0.76563 -0.359375,-0.21875 -1.75,-0.71875 -0.1875,-0.0625 -0.5625,-0.20312 l -13.859379,5.25 v -2.53125 l 8.015629,-2.875 q 1.515625,-0.5625 3.203125,-1 -1.625,-0.40625 -3.15625,-0.96875 l -8.062504,-2.95313 v -2.34375 l 14.062504,5.26563 q 2.28125,0.84375 3.140625,1.3125 1.15625,0.625 1.6875,1.4375 0.546875,0.79687 0.546875,1.92187 0,0.67188 -0.28125,1.5 z m -0.03125,-13.42187 H 41.480538 v -2.14063 h 1.796879 q -1.046879,-0.75 -1.578129,-1.70312 -0.53125,-0.95313 -0.53125,-2.3125 0,-1.76563 0.921875,-3.10938 0.906254,-1.35937 2.562504,-2.04687 1.65625,-0.6875 3.640625,-0.6875 2.125,0 3.828125,0.76562 1.6875,0.75 2.59375,2.20313 0.90625,1.45312 0.90625,3.04687 0,1.17188 -0.484375,2.10938 -0.5,0.92187 -1.265625,1.53125 h 6.734375 z m -12.125,-2.125 q 2.65625,0 3.9375,-1.07813 1.28125,-1.09375 1.28125,-2.625 0,-1.5625 -1.3125,-2.67187 -1.328125,-1.10938 -4.109375,-1.10938 -2.640625,0 -3.953125,1.09375 -1.3125,1.07813 -1.3125,2.59375 0,1.48438 1.40625,2.64063 1.390625,1.15625 4.0625,1.15625 z m 6.828125,-12.69996 H 36.230538 v -2.34375 h 6.843754 q -1.906254,-1.64062 -1.906254,-4.14062 0,-1.54688 0.609375,-2.67188 0.609379,-1.14062 1.671879,-1.625 1.0625,-0.48437 3.09375,-0.48437 h 8.765625 v 2.34375 h -8.765625 q -1.75,0 -2.546875,0.76562 -0.8125,0.75 -0.8125,2.15625 0,1.03125 0.546875,1.95313 0.546875,0.92187 1.46875,1.3125 0.921875,0.39062 2.546875,0.39062 h 7.5625 z m -1.703125,-23.85617 q 1.109375,1.3125 1.5625,2.51563 0.453125,1.20312 0.453125,2.57812 0,2.28125 -1.109375,3.5 -1.109375,1.21875 -2.84375,1.21875 -1.015625,0 -1.859375,-0.45312 -0.84375,-0.46875 -1.34375,-1.21875 -0.515625,-0.75 -0.765625,-1.6875 -0.1875,-0.6875 -0.359375,-2.07813 -0.328125,-2.82812 -0.796875,-4.17187 -0.484375,-0.0156 -0.625,-0.0156 -1.421875,0 -2.015625,0.65625 -0.796875,0.90625 -0.796875,2.67188 0,1.65625 0.59375,2.45312 0.578125,0.78125 2.046875,1.15625 l -0.3125,2.29688 q -1.46875,-0.3125 -2.375,-1.03125 -0.906254,-0.71875 -1.390629,-2.0625 -0.5,-1.35938 -0.5,-3.14063 0,-1.78125 0.421875,-2.875 0.421875,-1.10937 1.046879,-1.625 0.625,-0.53125 1.59375,-0.73437 0.59375,-0.125 2.15625,-0.125 h 3.125 q 3.265625,0 4.140625,-0.14063 0.859375,-0.15625 1.65625,-0.59375 v 2.4375 q -0.734375,0.375 -1.703125,0.46875 z m -5.234375,0.20313 q 0.515625,1.26562 0.890625,3.82812 0.203125,1.4375 0.46875,2.04688 0.25,0.59375 0.75,0.92187 0.5,0.3125 1.125,0.3125 0.9375,0 1.5625,-0.70312 0.625,-0.70313 0.625,-2.07813 0,-1.34375 -0.59375,-2.39062 -0.59375,-1.0625 -1.625,-1.5625 -0.796875,-0.375 -2.34375,-0.375 z m 6.9375,-5.94995 H 36.230538 v -2.34375 h 19.078129 z"
     fill-rule="nonzero"
     id="path79" />
  <path
     fill="#efefef"
     d="M 613.63924,0 H 731.62349 V 79.40158 H 613.63924 Z"
     fill-rule="evenodd"
     id="path81" />
  <path
     fill="#999999"
     d="M 659.31669,47.96079 V 31.74204 h 11.71875 v 1.92187 h -9.57813 v 4.95313 h 8.96875 v 1.90625 h -8.96875 v 5.53125 h 9.95313 v 1.90625 z m 19.70532,0 -6.29687,-16.21875 h 2.32812 l 4.21875,11.78125 q 0.5,1.42187 0.84375,2.65625 0.375,-1.32813 0.875,-2.65625 l 4.39063,-11.78125 h 2.1875 l -6.35938,16.21875 z"
     fill-rule="nonzero"
     id="path83" />
</svg>
